<svg width="135" height="14" viewBox="0 0 135 14" xmlns="http://www.w3.org/2000/svg"><title>Group 2</title><path d="M4.85 7.492c2.25 0 2.754.774 2.754 2.556v.252c0 1.188-.018 2.16.216 2.7h1.62c-.216-.522-.18-1.62-.18-2.484v-.54c0-2.16-.882-2.934-1.908-3.204 1.206-.324 2.142-1.314 2.142-2.952 0-1.944-1.368-3.348-3.942-3.348H.656V13h1.638V7.492H4.85zM2.294 1.876H5.21c1.692 0 2.556.756 2.556 2.088 0 1.404-.828 2.124-2.754 2.124H2.294V1.876zm20.427 3.852h-6.228V1.894h6.534V.472h-8.154V13h8.244l.216-1.422h-6.84V7.15h6.228V5.728zM28.191 13h4.914c2.376 0 4.176-1.314 4.176-3.672 0-1.836-1.332-2.718-2.214-2.988.972-.342 1.8-1.278 1.8-2.736 0-1.728-1.224-3.132-3.87-3.132H28.19V13zm1.62-7.308V1.858h3.114c1.476 0 2.268.774 2.268 1.89 0 1.224-.702 1.944-2.52 1.944H29.81zm0 1.368h2.772c2.124 0 2.988.918 2.988 2.268 0 1.566-1.098 2.304-2.664 2.304H29.81V7.06zM42.39 13h4.913c2.376 0 4.176-1.314 4.176-3.672 0-1.836-1.332-2.718-2.214-2.988.972-.342 1.8-1.278 1.8-2.736 0-1.728-1.224-3.132-3.87-3.132H42.39V13zm1.62-7.308V1.858h3.113c1.476 0 2.268.774 2.268 1.89 0 1.224-.702 1.944-2.52 1.944H44.01zm0 1.368h2.771c2.124 0 2.988.918 2.988 2.268 0 1.566-1.098 2.304-2.664 2.304H44.01V7.06zM56.59.472V13h1.656V.472H56.59zM73.183 13l-4.302-6.48L73.04.472h-1.836l-3.24 4.878h-.018L64.795.472H62.87l4.068 6.192L62.707 13h1.836l3.348-5.148h.018L71.24 13h1.944zM84.5 13h7.956l.234-1.422h-6.534V.472H84.5V13zm19.995-3.762L105.881 13h1.782L103.001.472h-2.034L96.503 13h1.656l1.35-3.762h4.986zm-4.554-1.422c.954-2.808 1.692-4.932 1.998-5.994h.018c.27.954.918 2.7 2.124 5.994h-4.14zM112.197 13h4.914c2.376 0 4.176-1.314 4.176-3.672 0-1.836-1.332-2.718-2.214-2.988.972-.342 1.8-1.278 1.8-2.736 0-1.728-1.224-3.132-3.87-3.132h-4.806V13zm1.62-7.308V1.858h3.114c1.476 0 2.268.774 2.268 1.89 0 1.224-.702 1.944-2.52 1.944h-2.862zm0 1.368h2.772c2.124 0 2.988.918 2.988 2.268 0 1.566-1.098 2.304-2.664 2.304h-3.096V7.06zm11.77 2.448c.27 1.926 1.62 3.654 4.77 3.654 3.06 0 4.553-1.584 4.553-3.6 0-1.62-.63-3.006-4.194-3.87-2.196-.54-2.898-1.008-2.898-2.178 0-1.188.846-1.872 2.376-1.872 1.836 0 2.52.918 2.754 2.016h1.692c-.18-1.638-1.404-3.366-4.392-3.366-2.79 0-4.158 1.512-4.158 3.384 0 1.764 1.026 2.772 3.978 3.492 2.502.594 3.114 1.296 3.114 2.556 0 1.188-.774 2.106-2.718 2.106-1.818 0-2.844-.81-3.186-2.322h-1.692z" fill="#9B9B9B" fill-rule="evenodd"/></svg>