<svg width="100" height="26" viewBox="0 0 100 26" xmlns="http://www.w3.org/2000/svg"><title>Mozilla_Foundation_201x_logo</title><path d="M93.332 17.49c-3.135 0-4.235.572-4.235 2.647 0 1.35.858 2.266 2.008 2.266.843 0 1.695-.441 2.366-1.185l.074-3.728h-.213zm-5.876-9.115c1.686-.714 3.135-1.016 4.732-1.016 2.916 0 4.91 1.081 5.592 3.015.225.71.328 1.252.308 3.118l-.11 5.825v.308c0 1.863.308 2.576 1.633 3.557l-2.407 2.783c-1.06-.444-2.003-1.226-2.443-2.104-.335.342-.71.674-1.053.914-.84.61-2.067.95-3.487.95-3.86 0-5.956-1.969-5.956-5.419 0-4.073 2.816-5.973 8.328-5.973.331 0 .645 0 1.02.039v-.708c0-1.935-.375-2.58-2.043-2.58-1.438 0-3.144.708-5.001 1.965l-1.932-3.254c.92-.578 1.598-.914 2.819-1.42zM80.34 4.513v13.519c0 2.986.039 3.388.317 3.862.16.307.526.473.905.473.171 0 .275 0 .514-.062l.772 2.708c-.772.304-1.721.473-2.706.473-1.93 0-3.49-.913-4.03-2.367-.347-.882-.403-1.427-.403-3.9V6.27c0-2.268-.068-3.654-.242-5.22L80.097 0c.187.948.243 2.067.243 4.513zm-9.404 0v13.519c0 2.986.035 3.388.308 3.862.171.307.538.473.916.473.163 0 .26 0 .506-.062l.775 2.708c-.775.304-1.724.473-2.706.473-1.934 0-3.49-.913-4.028-2.367-.34-.882-.414-1.427-.414-3.9V6.27c0-2.268-.06-3.654-.228-5.22L70.702 0c.163.948.234 2.067.234 4.513zm-8.257 2.808V25.08h-4.534V8.034l4.534-.713zm.532-4.369a2.79 2.79 0 0 1-2.806 2.808c-1.518 0-2.765-1.247-2.765-2.808 0-1.557 1.29-2.814 2.841-2.814 1.52 0 2.73 1.257 2.73 2.814zM55.542 7.73v3.118l-7.653 11.08h7.952l-1.085 3.153H42.004v-2.812l8.147-11.352h-7.467V7.729h12.858zm-24.74 4.777c-.311.918-.477 2.137-.477 3.866 0 1.994.204 3.493.574 4.37.408.95 1.428 1.424 2.3 1.424 1.964 0 2.804-1.76 2.804-5.86 0-2.34-.304-3.868-.91-4.65-.436-.571-1.142-.912-1.958-.912-1.086 0-1.967.675-2.334 1.762zM38.954 10c1.384 1.625 2.002 3.522 2.002 6.334 0 2.982-.683 5.02-2.177 6.71-1.313 1.49-3.043 2.408-5.71 2.408-4.712 0-7.784-3.526-7.784-8.979 0-5.458 3.105-9.085 7.783-9.085 2.47 0 4.398.85 5.886 2.612zM4.102 7.427c.302.467.435.883.603 1.76 1.18-1.153 2.635-1.76 4.223-1.76 1.435 0 2.612.467 3.523 1.419.245.238.482.546.686.848 1.585-1.626 3.004-2.267 4.906-2.267 1.354 0 2.638.406 3.422 1.081.979.847 1.289 1.866 1.289 4.236V25.08h-4.4V13.628c0-2.076-.246-2.477-1.426-2.477-.846 0-2.035.578-3.01 1.459v12.47H9.622V13.791c0-2.165-.313-2.673-1.573-2.673-.837 0-1.996.434-2.972 1.32V25.08H.648v-12.1c0-2.506-.172-3.588-.648-4.44l4.102-1.113z" fill="#FFF" fill-rule="evenodd"/></svg>