<svg width="133" height="40" xmlns="http://www.w3.org/2000/svg"><path d="M12.284 20.267h8.045v8.041a8.043 8.043 0 0 1-8.045-8.04zm8.045 13.51c-7.466 0-13.518-6.048-13.518-13.51 0-7.461 6.052-13.51 13.518-13.51v13.51h13.519c0 7.462-6.052 13.51-13.519 13.51zm0-33.775C9.13.002.052 9.076.052 20.267c0 11.193 9.079 20.266 20.277 20.266 11.2 0 20.278-9.073 20.278-20.265C40.607 9.074 31.528 0 20.329 0zm33.287 23.343c.377 0 .756-.069 1.14-.206a2.873 2.873 0 0 0 1.031-.65c.306-.295.556-.672.75-1.13.193-.46.29-1.009.29-1.651 0-.642-.097-1.192-.29-1.65a3.304 3.304 0 0 0-.758-1.131 2.951 2.951 0 0 0-1.039-.65 3.306 3.306 0 0 0-1.124-.206c-.367 0-.742.069-1.124.206a2.95 2.95 0 0 0-1.04.65c-.31.295-.563.672-.757 1.13-.194.459-.29 1.009-.29 1.65s.094 1.193.283 1.651.435.836.742 1.13c.305.297.65.513 1.031.65a3.387 3.387 0 0 0 1.155.207zm0 1.864a6.004 6.004 0 0 1-2.034-.343 4.823 4.823 0 0 1-1.697-1.032 4.876 4.876 0 0 1-1.162-1.719c-.286-.688-.429-1.49-.429-2.407 0-.907.148-1.704.444-2.391.296-.688.688-1.262 1.178-1.72a4.927 4.927 0 0 1 1.696-1.04 5.8 5.8 0 0 1 2.004-.35c.693 0 1.36.116 2.003.35a4.928 4.928 0 0 1 1.698 1.04c.489.458.881 1.032 1.177 1.72.295.687.443 1.484.443 2.39 0 .918-.143 1.72-.428 2.408a4.873 4.873 0 0 1-1.162 1.72 4.826 4.826 0 0 1-1.698 1.03 6.005 6.005 0 0 1-2.033.344zm6.988-10.544c0-.204.102-.306.306-.306h1.376c.204 0 .306.102.306.306v8.527h5.122c.204 0 .306.102.306.306v1.253c0 .204-.102.306-.306.306H60.91c-.204 0-.306-.102-.306-.306V14.665m11.24 4.768l-2.83-4.707a.385.385 0 0 1-.061-.183c0-.122.077-.184.23-.184h1.665c.124 0 .212.016.268.046a.54.54 0 0 1 .176.184l1.729 2.919 1.743-2.92a.553.553 0 0 1 .175-.183.584.584 0 0 1 .268-.046h1.666c.154 0 .23.062.23.184 0 .05-.02.112-.061.183l-2.829 4.707 3.165 5.288a.264.264 0 0 1 .062.168c0 .112-.072.168-.215.168H75.36c-.143 0-.24-.026-.29-.077a1.201 1.201 0 0 1-.169-.23l-1.88-3.224-1.897 3.225a1.21 1.21 0 0 1-.168.23c-.05.05-.148.076-.29.076H68.83c-.142 0-.214-.056-.214-.168 0-.061.021-.117.062-.168l3.165-5.288m14.083.23c0-.204.101-.307.306-.307h5.658c.203 0 .305.103.305.306v.23c0 .784-.112 1.502-.336 2.154a4.792 4.792 0 0 1-.971 1.681 4.387 4.387 0 0 1-1.536 1.092c-.602.26-1.28.39-2.035.39a6.224 6.224 0 0 1-2.033-.336 5.02 5.02 0 0 1-1.743-1.024 5.01 5.01 0 0 1-1.224-1.72c-.306-.687-.458-1.494-.458-2.421 0-.896.155-1.689.466-2.377a5.186 5.186 0 0 1 1.231-1.727 5.128 5.128 0 0 1 1.759-1.046 6.107 6.107 0 0 1 2.049-.351c.499 0 .97.058 1.414.175a5.829 5.829 0 0 1 1.23.474c.378.199.714.43 1.01.695.295.266.546.54.75.826.05.06.076.133.076.214 0 .08-.052.173-.154.274l-.948.84c-.09.083-.178.123-.26.123-.09 0-.177-.056-.259-.168-.398-.52-.826-.914-1.284-1.184-.46-.27-1.01-.405-1.652-.405-.428 0-.84.077-1.239.23a3.061 3.061 0 0 0-1.055.679 3.4 3.4 0 0 0-.741 1.131c-.189.454-.283.986-.283 1.597 0 .58.094 1.098.283 1.551.189.454.436.836.74 1.146.307.311.66.546 1.065.703a3.378 3.378 0 0 0 1.246.237c.712 0 1.309-.175 1.789-.527.479-.351.795-.884.948-1.597h-3.808c-.205 0-.306-.102-.306-.306v-1.253m12.233-1.268c.449 0 .8-.092 1.055-.275.255-.184.382-.454.382-.81 0-.357-.127-.627-.382-.81-.254-.183-.606-.275-1.055-.275h-2.324v2.17h2.324zm-4.312-3.729c0-.204.101-.306.305-.306h3.9c1.132 0 2.008.26 2.63.78.622.52.933 1.248.933 2.185 0 .448-.076.843-.23 1.184a2.708 2.708 0 0 1-.619.88c-.26.244-.565.437-.917.58a4.5 4.5 0 0 1-1.124.29l3.288 4.462a.263.263 0 0 1 .06.168c0 .112-.065.168-.198.168h-1.896c-.113 0-.194-.017-.245-.053a.791.791 0 0 1-.168-.175l-3.364-4.57h-.367v4.493c0 .204-.103.305-.306.305h-1.377c-.204 0-.304-.101-.304-.305V14.665zm14.205 8.68c.378 0 .758-.069 1.14-.207a2.873 2.873 0 0 0 1.032-.65c.305-.294.556-.671.75-1.13.193-.458.29-1.008.29-1.65 0-.642-.097-1.192-.29-1.65a3.325 3.325 0 0 0-.758-1.131 2.943 2.943 0 0 0-1.04-.65 3.303 3.303 0 0 0-1.124-.206c-.366 0-.74.069-1.124.206a2.948 2.948 0 0 0-1.039.65c-.31.295-.564.672-.757 1.13-.194.459-.29 1.009-.29 1.65s.094 1.193.283 1.651c.187.459.435.836.74 1.13a2.877 2.877 0 0 0 1.033.65 3.39 3.39 0 0 0 1.155.207zm0 1.864a6.009 6.009 0 0 1-2.033-.343 4.827 4.827 0 0 1-1.698-1.032c-.49-.458-.876-1.032-1.162-1.719-.285-.688-.427-1.49-.427-2.407 0-.907.147-1.704.442-2.391.296-.689.688-1.262 1.178-1.72a4.93 4.93 0 0 1 1.697-1.04 5.803 5.803 0 0 1 2.004-.35c.693 0 1.36.116 2.002.35a4.921 4.921 0 0 1 1.698 1.04c.49.458.882 1.031 1.178 1.72.295.687.443 1.484.443 2.39 0 .918-.143 1.72-.428 2.408-.286.687-.673 1.26-1.162 1.72a4.827 4.827 0 0 1-1.698 1.03 6.001 6.001 0 0 1-2.033.344zm6.958-10.544c0-.204.102-.306.306-.306h1.376c.204 0 .306.102.306.306v5.853c0 .53.062.975.184 1.337s.29.652.504.871c.214.22.463.377.75.474.285.097.586.145.902.145.316 0 .616-.048.902-.145a1.875 1.875 0 0 0 .749-.474c.214-.219.383-.51.504-.87.124-.363.184-.808.184-1.338v-5.853c0-.204.102-.306.306-.306h1.377c.203 0 .305.102.305.306v5.7c0 1.64-.38 2.857-1.14 3.653-.759.794-1.821 1.191-3.187 1.191-1.367 0-2.429-.397-3.188-1.191-.76-.796-1.14-2.013-1.14-3.653v-5.7m14.894 4.462c1.172 0 1.758-.484 1.758-1.451 0-.968-.586-1.452-1.758-1.452h-2.217v2.903h2.217zm-4.205-4.462c0-.204.101-.306.306-.306h4.113c.601 0 1.124.087 1.567.26a3 3 0 0 1 1.101.718c.291.306.508.663.65 1.07.143.408.214.846.214 1.314a3.724 3.724 0 0 1-.214 1.269 2.934 2.934 0 0 1-.634 1.04 3.008 3.008 0 0 1-1.047.702c-.418.173-.909.26-1.468.26h-2.6v3.759c0 .204-.102.305-.307.305h-1.375c-.205 0-.306-.101-.306-.305V14.665z" fill="#111" fill-rule="evenodd"/></svg>