<svg width="164" height="35" viewBox="0 0 164 35" xmlns="http://www.w3.org/2000/svg" xmlns:xlink="http://www.w3.org/1999/xlink"><title>modna kasta copy 2</title><defs><path id="a" d="M0 .05h163.968V35H0"/><path id="c" d="M0 .05h163.968V35H0z"/><path id="e" d="M0 .05h163.968V35H0z"/></defs><g fill="none" fill-rule="evenodd"><g><mask id="b" fill="#fff"><use xlink:href="#a"/></mask><path d="M2.526 22.815V34.58H.458v-9.17c0-1.45.113-3.057-.458-3.902 2.36-1.108 7.395-1.776 9.488.366 4.095-2.76 9.808-1.07 9.745 3.113v9.594h-2.026v-9.21c-.002-1.214-.68-2.008-1.434-2.472-1.452-.896-3.99-.24-5.19.596.156.793.287 1.655.288 2.56l.01 8.527H8.813v-9.42c0-2.487-3.194-3.627-6.287-2.345" fill="#FEFEFE" mask="url(#b)"/></g><path d="M28.264 22.438c2.793 0 5.058 2.377 5.058 5.307 0 2.932-2.265 5.31-5.058 5.31-2.793 0-5.057-2.378-5.057-5.31 0-2.93 2.264-5.307 5.057-5.307zm0-1.937c3.958 0 7.168 3.245 7.168 7.245s-3.21 7.245-7.168 7.245-7.168-3.244-7.168-7.245c0-4 3.21-7.244 7.168-7.244v-.001zm19.108-4.605h2.043v17.3l.317.813c-1.91.805-3.414.98-5.857.98-3.958 0-7.167-3.244-7.167-7.244 0-4 3.21-7.245 7.167-7.245a7.07 7.07 0 0 1 3.497.92v-5.524zm-3.497 6.542c1.205 0 2.458.413 3.497 1.177v8.914c-1.062.42-2.335.53-3.497.523-2.792 0-5.057-2.376-5.057-5.307 0-2.93 2.265-5.308 5.057-5.308v.001zm10.122.362v11.785H52.01V22.48l-.498-1.18c5.088-1.695 10.798-1.182 11.473 3.415.063.428.05.792.06 1.27v8.6H61.06v-8.68c.044-3.617-3.935-4.23-7.06-3.106l-.003.001zm24.865-6.19h1.506v8.35l8.227-8.53 1.075 1.066-7.603 7.885 7.522 8.494-1.12 1.02-8.102-9.148v8.742h-1.506v-17.88l.001.001zM70.54 27.095c1.944 0 3.52 1.326 3.52 2.96 0 1.636-1.576 2.962-3.52 2.962-1.942 0-3.518-1.326-3.518-2.96 0-1.636 1.576-2.962 3.52-2.962h-.002zm-4.378-5.184l.84 1.723c2.65-1.61 7.397-2.466 6.954 2.863-.955-.772-2.222-1.242-3.61-1.242-2.973 0-5.383 2.15-5.383 4.802 0 2.652 2.41 4.802 5.382 4.802 1.398 0 2.67-.476 3.628-1.256.066.472.156.935.35 1.364l2.077-.606c-.388-1.147-.468-2.428-.505-3.727.05-1.71.1-3.115.15-4.825.178-5.976-6.324-6.512-9.884-3.897l.001-.001zm37.365 11.434c.198-.497.605-.782.845-1.237 1.118 1.225 4.663 2.124 6.54.938.96-.605 1.472-2.222.59-3.283-1.922-2.308-7.865-1.354-7.592-5.843.145-2.395 2.46-3.48 4.815-3.467 1.612.01 3.223.555 4.253 1.463-.28.386-.53.803-.84 1.15-.736-.463-1.908-1.252-3.71-1.282-1.714-.03-3.91 1.515-2.535 3.543 1.42 1.765 5.05 1.43 6.79 3.283.725.783.877 1.77.83 2.577-.098 1.714-1.374 3.145-3.21 3.587-2.444.588-5.278 0-6.776-1.43v.001zM92.434 23.024l-.59-1.28c1.916-1.618 6.6-1.682 8.35.073.862.817 1.224 2.198 1.224 3.833l.003 6.884c0 .784.045 1.42.294 1.963-.564.083-1.043.253-1.603.34a6.107 6.107 0 0 1-.21-1.578c-1.505 1.43-3.3 1.92-5.222 1.573-2.378-.427-3.86-1.76-4.144-4.303 0-1.103.123-2.1.786-3.034 1.017-1.436 2.903-2.2 4.993-2.084 1.554.09 2.764.833 3.628 1.792.125-1.612.092-3.036-.523-3.93-1.636-2.38-5.585-1.34-6.983-.25l-.003.001zm2.158 3.885c-2.137.522-3.242 3.048-2.073 4.984 1.54 2.554 6.317 2.074 7.232-.53.31-.884.19-1.78-.2-2.625-.86-1.858-3.19-2.262-4.96-1.83l.001.001zm33.025-3.885l-.59-1.28c1.915-1.618 6.6-1.682 8.35.073.862.817 1.223 2.198 1.224 3.833l.004 6.884c0 .784.043 1.42.293 1.963-.565.083-1.043.253-1.603.34a6.107 6.107 0 0 1-.21-1.578c-1.506 1.43-3.302 1.92-5.223 1.573-2.377-.427-3.86-1.76-4.143-4.303 0-1.103.123-2.1.786-3.034 1.017-1.436 2.902-2.2 4.993-2.084 1.554.09 2.763.833 3.627 1.792.125-1.612.092-3.036-.523-3.93-1.637-2.38-5.586-1.34-6.983-.25l-.002.001zm2.156 3.885c-2.135.522-3.24 3.048-2.07 4.984 1.54 2.554 6.316 2.074 7.23-.53.31-.884.192-1.78-.2-2.625-.86-1.858-3.187-2.262-4.96-1.83v.001zM116.84 16.413h1.442v4.48h5.344v1.267h-5.344v7.108c0 1.664.068 3.95 2.186 4.3 1.438.237 2.568-.354 3.437-1.16.363.36.674.68 1.038 1.038-1.496 1.47-3.673 1.747-4.918 1.42-1.693-.445-2.487-1.33-2.87-2.56-.338-1.094-.316-2.23-.316-3.333V22.16h-2.594v-1.267h2.593v-4.48h.002z" fill="#FEFEFE"/><g><mask id="d" fill="#fff"><use xlink:href="#c"/></mask><path d="M149.316 27.2c.956.103 1.65.96 1.55 1.917a1.74 1.74 0 0 1-1.897 1.568 1.748 1.748 0 0 1-1.552-1.918 1.738 1.738 0 0 1 1.898-1.568l.001.001zm14.652-13.09h-.002c-13.915.005-23.84 5.346-19.31 19.237v.005h.002c13.677 4.78 19.105-5.175 19.31-19.237v-.005z" fill="#4FB748" mask="url(#d)"/></g><g><mask id="f" fill="#fff"><use xlink:href="#e"/></mask><path d="M146.58 8.845c-.643.07-1.11.646-1.042 1.29a1.168 1.168 0 0 0 1.275 1.053 1.174 1.174 0 0 0 1.043-1.29 1.168 1.168 0 0 0-1.275-1.053h-.001zM136.735.05h.002c9.35.002 16.02 3.592 12.977 12.927l-.002.003c-9.19 3.213-12.838-3.477-12.976-12.928V.05h-.001z" fill="#EC008B" mask="url(#f)"/></g></g></svg>