<svg width="84" height="20" xmlns="http://www.w3.org/2000/svg"><path d="M0 19.793h2.28V11.23h10.94V9.209H2.28v-7.02h12.238V.14H0v19.653zm38.97 0h2.28V.14h-2.28v19.653zm7.867 0h2.28v-7.637h5.772l5.86 7.637h2.8l-6.206-8.03c3.175-.561 5.484-2.47 5.484-5.727V5.98c0-1.544-.577-2.92-1.559-3.874C59.998.87 58.006.14 55.523.14h-8.687v19.653zm2.28-9.63V2.19h6.234c3.262 0 5.167 1.46 5.167 3.874v.056c0 2.527-2.165 4.043-5.196 4.043h-6.205zm23.86 9.63h2.31v-7.805L83.683.14H81.03l-6.87 9.827L67.349.14h-2.771l8.4 11.876v7.777zM25.885.913h-1.74l8.66 18.717h2.312L25.885.112h-1.74L14.913 19.63h2.313L25.885.913z" fill="#FFF" fill-rule="evenodd"/></svg>