<svg width="133" height="40" viewbox="0 0 191 53" xmlns="http://www.w3.org/2000/svg"><g class="color" fill="white" fill-rule="evenodd" transform="scale(0.7)"><path d="M17.549 28.953h11.493V40.44c-6.347 0-11.493-5.143-11.493-11.487zm11.493 19.301c-10.666 0-19.312-8.641-19.312-19.3 0-10.66 8.646-19.3 19.312-19.3v19.3h19.312c0 10.659-8.646 19.3-19.312 19.3zm0-48.251C13.043.003.074 12.965.074 28.953c0 15.99 12.97 28.951 28.968 28.951 15.999 0 28.968-12.961 28.968-28.95C58.01 12.963 45.04.002 29.042.002zM76.594 33.35c.539 0 1.081-.098 1.628-.295a4.104 4.104 0 0 0 1.474-.928c.437-.421.794-.96 1.07-1.615.277-.655.415-1.44.415-2.358 0-.917-.138-1.703-.415-2.358-.276-.655-.637-1.193-1.081-1.615a4.216 4.216 0 0 0-1.485-.928 4.723 4.723 0 0 0-1.606-.295c-.524 0-1.06.099-1.606.295a4.214 4.214 0 0 0-1.485.928c-.444.422-.805.96-1.081 1.615-.277.655-.415 1.441-.415 2.358s.134 1.703.404 2.358.622 1.194 1.06 1.615c.436.423.928.732 1.474.928a4.839 4.839 0 0 0 1.65.295zm0 2.663a8.577 8.577 0 0 1-2.905-.49 6.89 6.89 0 0 1-2.425-1.474c-.699-.655-1.253-1.474-1.66-2.456-.408-.983-.612-2.13-.612-3.439 0-1.295.211-2.434.634-3.416.422-.983.983-1.802 1.682-2.457a7.038 7.038 0 0 1 2.424-1.484 8.287 8.287 0 0 1 2.862-.502c.99 0 1.944.167 2.862.502a7.04 7.04 0 0 1 2.425 1.484c.699.655 1.259 1.474 1.682 2.457.422.982.633 2.12.633 3.416 0 1.31-.204 2.456-.612 3.439-.407.982-.96 1.8-1.66 2.456a6.894 6.894 0 0 1-2.425 1.473 8.578 8.578 0 0 1-2.905.491zM86.577 20.95c0-.291.146-.437.437-.437h1.966c.291 0 .437.146.437.437v12.182h7.318c.29 0 .437.145.437.436v1.79c0 .292-.146.437-.437.437h-9.721c-.291 0-.437-.145-.437-.437V20.95M102.633 27.761l-4.042-6.724a.55.55 0 0 1-.087-.262c0-.174.11-.262.328-.262h2.38c.176 0 .303.022.383.066.08.043.164.13.251.262l2.469 4.17 2.49-4.17a.79.79 0 0 1 .251-.262c.08-.044.208-.066.383-.066h2.38c.22 0 .328.088.328.262 0 .073-.029.16-.087.262l-4.041 6.724 4.521 7.554a.377.377 0 0 1 .088.24c0 .16-.102.24-.306.24h-2.665c-.204 0-.342-.036-.415-.109a1.716 1.716 0 0 1-.24-.328l-2.687-4.606-2.71 4.606a1.728 1.728 0 0 1-.24.328c-.072.073-.21.11-.414.11h-2.622c-.204 0-.306-.08-.306-.241 0-.087.03-.167.088-.24l4.522-7.554M122.752 28.089c0-.291.144-.437.436-.437h8.084c.29 0 .435.146.435.437v.327c0 1.121-.16 2.147-.48 3.078-.32.932-.782 1.733-1.387 2.402a6.267 6.267 0 0 1-2.195 1.56c-.86.372-1.827.557-2.906.557a8.892 8.892 0 0 1-2.905-.48 7.172 7.172 0 0 1-2.49-1.463c-.729-.654-1.31-1.473-1.748-2.456-.437-.982-.655-2.135-.655-3.46 0-1.28.222-2.412.666-3.395.444-.982 1.03-1.804 1.759-2.467a7.326 7.326 0 0 1 2.512-1.495 8.724 8.724 0 0 1 2.927-.502c.713 0 1.387.084 2.021.25a8.327 8.327 0 0 1 1.758.678c.539.284 1.019.615 1.442.993.421.379.779.772 1.07 1.179.072.087.11.19.11.306 0 .116-.074.247-.22.392l-1.354 1.201c-.13.117-.255.175-.371.175-.13 0-.254-.08-.371-.24-.568-.742-1.18-1.306-1.834-1.692-.657-.386-1.442-.579-2.36-.579-.612 0-1.201.11-1.77.328a4.373 4.373 0 0 0-1.508.971c-.435.43-.789.968-1.058 1.616-.27.648-.405 1.408-.405 2.281 0 .83.135 1.569.405 2.216.27.648.623 1.194 1.058 1.637.438.445.943.78 1.52 1.005a4.826 4.826 0 0 0 1.78.338c1.018 0 1.87-.25 2.556-.753.684-.502 1.136-1.263 1.354-2.281h-5.44c-.292 0-.436-.146-.436-.437v-1.79M140.227 26.277c.641 0 1.144-.131 1.508-.393.363-.262.545-.648.545-1.157 0-.51-.182-.895-.545-1.157-.364-.262-.867-.393-1.508-.393h-3.32v3.1h3.32zm-6.16-5.327c0-.291.145-.437.436-.437h5.572c1.616 0 2.868.371 3.757 1.114.888.742 1.332 1.783 1.332 3.121 0 .641-.108 1.205-.328 1.692a3.868 3.868 0 0 1-.884 1.256c-.372.35-.808.626-1.31.83a6.429 6.429 0 0 1-1.606.414l4.697 6.375a.376.376 0 0 1 .086.24c0 .16-.094.24-.284.24h-2.708c-.161 0-.277-.025-.35-.076a1.13 1.13 0 0 1-.24-.251l-4.806-6.528h-.524v6.418c0 .292-.147.437-.437.437h-1.967c-.291 0-.435-.145-.435-.437V20.95zM154.36 33.35c.54 0 1.083-.098 1.628-.295a4.104 4.104 0 0 0 1.475-.928c.436-.421.794-.96 1.07-1.615.277-.655.415-1.44.415-2.358 0-.917-.138-1.703-.414-2.358-.277-.655-.639-1.193-1.082-1.615a4.205 4.205 0 0 0-1.486-.928 4.718 4.718 0 0 0-1.606-.295c-.523 0-1.058.099-1.605.295a4.211 4.211 0 0 0-1.485.928c-.444.422-.806.96-1.082 1.615-.277.655-.415 1.441-.415 2.358s.136 1.703.405 2.358c.268.655.622 1.194 1.059 1.615a4.11 4.11 0 0 0 1.474.928 4.844 4.844 0 0 0 1.65.295zm0 2.663a8.584 8.584 0 0 1-2.905-.49 6.896 6.896 0 0 1-2.425-1.474c-.699-.655-1.252-1.474-1.66-2.456-.407-.983-.61-2.13-.61-3.439 0-1.295.21-2.434.632-3.416.422-.983.983-1.802 1.682-2.457a7.042 7.042 0 0 1 2.425-1.484 8.29 8.29 0 0 1 2.862-.502c.99 0 1.944.167 2.861.502a7.03 7.03 0 0 1 2.425 1.484c.699.655 1.26 1.474 1.683 2.457.422.982.633 2.12.633 3.416 0 1.31-.204 2.456-.611 3.439-.409.982-.962 1.8-1.661 2.456a6.896 6.896 0 0 1-2.425 1.473 8.573 8.573 0 0 1-2.905.491zM164.3 20.95c0-.291.146-.437.437-.437h1.966c.291 0 .437.146.437.437v8.361c0 .757.088 1.394.263 1.91.174.517.414.932.72 1.245.306.313.662.538 1.07.677.409.138.838.207 1.29.207.451 0 .88-.069 1.288-.207a2.678 2.678 0 0 0 1.07-.677c.306-.313.547-.728.721-1.244.176-.517.262-1.154.262-1.91V20.95c0-.291.146-.437.437-.437h1.967c.29 0 .436.146.436.437v8.143c0 2.343-.542 4.082-1.628 5.218-1.084 1.135-2.602 1.702-4.553 1.702-1.953 0-3.47-.567-4.555-1.702-1.085-1.136-1.628-2.875-1.628-5.218V20.95M185.577 27.325c1.675 0 2.512-.692 2.512-2.074 0-1.383-.837-2.074-2.512-2.074h-3.167v4.148h3.167zm-6.007-6.375c0-.291.145-.437.437-.437h5.876c.859 0 1.605.124 2.238.371.635.248 1.159.59 1.574 1.026.415.437.725.947.928 1.528.204.583.306 1.209.306 1.878a5.32 5.32 0 0 1-.306 1.812 4.192 4.192 0 0 1-.906 1.485 4.297 4.297 0 0 1-1.496 1.004c-.597.247-1.298.371-2.097.371h-3.714v5.37c0 .292-.146.437-.438.437h-1.965c-.292 0-.437-.145-.437-.437V20.95z"/></g></svg>