<svg width="123" height="50" xmlns="http://www.w3.org/2000/svg"><path d="M96.005 21.04c-1.135 0-2.055.968-2.055 2.163V45.64c0 1.195.92 2.165 2.055 2.165 1.134 0 2.055-.97 2.055-2.165V23.203c0-1.195-.92-2.164-2.055-2.164zm-85.257-.036a1.985 1.985 0 0 0-.478-.13h-.155c-.123 0-.245 0-.362.016-2.436.097-4.564 1.29-5.93 3.28v-1.324a2.039 2.039 0 0 0-.786-1.42 1.835 1.835 0 0 0-1.125-.39c-.425 0-.81.147-1.126.39A2.026 2.026 0 0 0 0 23.05V45.7c0 .65.285 1.227.717 1.617.355.3.802.488 1.288.488.485 0 .932-.188 1.28-.488.386-.342.655-.837.71-1.397V32.061c0-4.391 2.975-6.625 6.045-6.95h.015l.332-.032h.015a1.71 1.71 0 0 0 .347-.105c.763-.3 1.31-1.08 1.31-1.99 0-.908-.548-1.68-1.311-1.98zm26.211 12.551c-.339-3.662-1.688-6.926-3.824-9.19-2.213-2.347-5.142-3.532-8.706-3.532-8.01 0-12.791 6.893-12.791 13.566 0 7.705 5.497 13.518 12.791 13.518 4.61 0 8.506-2.346 10.826-6.39.077-.113.147-.235.201-.366.092-.242.146-.511.146-.787 0-.284-.054-.552-.146-.787a2.08 2.08 0 0 0-.417-.65 1.81 1.81 0 0 0-.609-.43 1.8 1.8 0 0 0-1.495 0c-.232.097-.44.25-.617.43-.077.09-.146.178-.215.277l-.04.065c-1.549 2.996-4.355 4.75-7.633 4.75-4.502 0-8.065-3.355-8.628-8.03h19.27c.269 0 .524-.057.755-.164a1.78 1.78 0 0 0 .61-.43 2.12 2.12 0 0 0 .562-1.39l-.038-.453v-.007h-.002zM15.84 32.11c.925-4.376 4.394-7.394 8.59-7.394 4.018 0 7.295 2.955 8.282 7.394H15.84zm99.003 2.31l7.612-9.854c.717-.926.584-2.289-.297-3.043a1.984 1.984 0 0 0-2.891.31l-7.073 9.158-7.073-9.157a2.013 2.013 0 0 0-1.595-.797c-.457 0-.916.16-1.297.486-.88.754-1.013 2.118-.297 3.043l7.612 9.855-7.611 9.855c-.717.926-.583 2.29.296 3.045.382.326.84.486 1.296.486.597 0 1.188-.274 1.595-.8l7.073-9.155 7.072 9.156c.407.525.999.799 1.596.799.455 0 .914-.16 1.294-.486.88-.755 1.014-2.119.298-3.045l-7.61-9.855zM85.62 26.16c-2.14-2.65-5.143-4.277-8.458-4.578a12.52 12.52 0 0 0-1.093-.048c-2.69 0-5.206.927-7.267 2.487l2.62-19.29.032-.37c.059-1.919-1.387-3.524-3.229-3.59-1.844-.063-3.386 1.442-3.451 3.359l-.738 23.186c-2.508-3.69-6.623-6.066-11.252-6.066-.49 0-.982.028-1.469.082-3.465.381-6.591 2.083-8.886 4.788l-.688-22.931-.016-.266c-.197-1.808-1.765-3.108-3.5-2.901-1.736.202-2.984 1.832-2.788 3.638 0 0 3.574 33.28 3.594 33.477C39.778 44.47 45.677 50 52.753 50c.486 0 .982-.028 1.468-.081 5.149-.567 9.338-4.03 11.245-8.663.322.547.673 1.08 1.078 1.58 2.141 2.652 5.143 4.279 8.458 4.579.363.033.732.05 1.092.05 6.397 0 11.844-5.202 12.4-11.843.287-3.45-.734-6.81-2.874-9.461zM53.8 45.776c-.35.038-.7.058-1.046.058-5.022 0-9.21-3.926-9.74-9.135-.275-2.71.478-5.37 2.127-7.49 1.648-2.122 3.99-3.444 6.594-3.733a9.657 9.657 0 0 1 1.049-.057c5.023 0 9.208 3.925 9.74 9.132.57 5.598-3.343 10.635-8.724 11.225zm30.706-10.513c-.377 4.506-4.072 8.037-8.412 8.037a7.48 7.48 0 0 1-.744-.035c-2.25-.204-4.288-1.307-5.742-3.106-1.453-1.8-2.144-4.08-1.95-6.422.38-4.506 4.072-8.035 8.412-8.035.245 0 .5.011.746.033 2.25.203 4.287 1.307 5.74 3.106 1.454 1.798 2.143 4.081 1.95 6.422zm8.202-18.597a3.129 3.129 0 0 0 3.125 3.126 3.128 3.128 0 0 0 3.125-3.126 3.129 3.129 0 0 0-3.125-3.124 3.128 3.128 0 0 0-3.125 3.124z" fill="#85BC49" fill-rule="evenodd"/></svg>