<svg width="80" height="25" xmlns="http://www.w3.org/2000/svg"><g fill="#FFF" fill-rule="evenodd"><path d="M4.018 24.104l.795-13.825s.673-4.893 8.014-4.955l-.736 12.664 3.611-.062.856-12.602s6.362-.673 7.524 5.322l-.673 13.458h3.61l.794-13.948S27.63 3 18.393 1.716c-6.668-.062-8.625 0-8.625 0S2.61 1.593 1.143 9.423L.26 24.104h3.758zM32.096 1.689h15.783l-2.57 3.574h-9.665l-.978 15.17h7.524s-.102 2.896.1 3.672H30.659l1.438-22.416zm17.465 3.819l2.996-2.08s4.589 2.35 3.825 9.786c0 0 .122 9.606-11.807 10.89.031-.918 0-1.712 0-1.712s.184-1.774 1.652-2.11c1.407-.49 5.138-1.378 6.3-6.822 0 0 1.01-4.68-2.904-7.31.03-.214-.062-.642-.062-.642"/><path d="M48.827 5.02l3.7-2.632S52.13.492 49.988.064c-1.07 1.498-4.71 6.025-4.71 6.025s-.182 1.071.368 1.04c.55-.367 2.019-1.408 2.019-1.408s.672 1.5-.153 2.632c-.307.397-.95 1.59-3.976 1.559-.52-.03-5.46.43-5.72 5.26-.018.32.183 3.366 3.762 3.335.826.031 2.783 0 2.783 0s-1.866 1.59-1.56 3.61c.306 2.019.612 2.292.826 2.292.214-.183.06-2.231.274-2.66.215-.429.43-1.315 2.6-3.487.277-.336.948-1.743-.397-2.11-1.345-.368-4.373-.368-4.25-1.958 0 0 .152-1.56 2.721-2.66 1.132-.429 3.518-2.08 3.946-3.395.428-1.316.55-2.356.306-3.12"/><path d="M41.67 6.242s1.027-.875 2.752.275c.734.49 1.132 2.05-.061 2.63-1.193.582-2.263-.152-2.69-.52-.43-.365-.638-1.937 0-2.385m37.624-4.553l-.371 3.574h-9.91s-5.048.49-5.262 8.504c0 0-.794 6.697 5.201 6.697h9.176l-.275 3.64H68.8s-8.719.887-9.147-9.543c0 0-.432-11.83 9.605-12.872 3.915-.035 10.036 0 10.036 0"/></g></svg>