<svg width="125" height="22" viewBox="0 0 125 22" xmlns="http://www.w3.org/2000/svg"><title>Group 10</title><g fill="none" fill-rule="evenodd"><path d="M19.453 5.872h5.443v2.22c.783-.926 1.573-1.585 2.37-1.976.798-.392 1.76-.587 2.886-.587 1.213 0 2.173.214 2.88.644.706.43 1.284 1.07 1.732 1.92.917-.994 1.752-1.67 2.507-2.027.754-.358 1.685-.537 2.793-.537 1.633 0 2.907.484 3.824 1.453.917.97 1.375 2.485 1.375 4.548v9.553h-5.844v-8.665c0-.688-.133-1.198-.4-1.533-.392-.525-.88-.787-1.462-.787-.687 0-1.241.248-1.661.744-.42.497-.63 1.294-.63 2.392v7.85h-5.844v-8.38c0-.668-.038-1.122-.115-1.36a1.855 1.855 0 0 0-.644-.924 1.717 1.717 0 0 0-1.074-.351c-.669 0-1.218.253-1.648.76-.43.505-.644 1.336-.644 2.491v7.763h-5.844V5.873zM52.224 10.8l-5.572-.587c.21-.974.514-1.74.91-2.299.396-.558.967-1.043 1.711-1.453.535-.296 1.27-.526 2.206-.688a17.786 17.786 0 0 1 3.037-.243c1.747 0 3.15.098 4.21.293 1.06.196 1.944.604 2.65 1.225.497.43.888 1.038 1.175 1.826.286.788.43 1.54.43 2.256v6.717c0 .717.045 1.277.136 1.683.09.406.288.924.594 1.554H58.24c-.22-.391-.363-.69-.43-.895-.067-.205-.134-.527-.2-.967-.765.736-1.524 1.26-2.278 1.576-1.031.42-2.23.63-3.595.63-1.814 0-3.192-.42-4.132-1.26-.94-.84-1.411-1.877-1.411-3.108 0-1.156.339-2.106 1.017-2.85.678-.745 1.929-1.3 3.753-1.662 2.186-.44 3.604-.747 4.253-.924.65-.177 1.337-.408 2.063-.695 0-.716-.148-1.217-.444-1.504-.296-.286-.816-.43-1.561-.43-.955 0-1.671.154-2.149.46-.372.238-.673.687-.902 1.345zm5.056 3.066c-.802.286-1.638.54-2.507.759-1.184.315-1.933.625-2.248.93-.325.316-.487.674-.487 1.075 0 .458.16.833.48 1.124.32.291.79.437 1.41.437.65 0 1.254-.157 1.812-.473.559-.315.955-.699 1.189-1.153.234-.453.35-1.043.35-1.768v-.931zm7.42-7.993h5.456v2.493c.525-1.08 1.067-1.822 1.626-2.228.558-.405 1.248-.608 2.07-.608.859 0 1.8.267 2.821.802l-1.805 4.153c-.687-.286-1.231-.43-1.632-.43-.764 0-1.356.316-1.776.946-.602.888-.903 2.55-.903 4.984v5.1H64.7V5.871zM77.718.086h5.958v10.828l4.354-5.042h7.176l-5.457 5.329 5.772 9.882h-6.574l-3.08-6.101-2.19 2.148v3.953h-5.96V.086zm34.532 14.838h-11.687c.105.936.358 1.633.759 2.092.563.658 1.299.988 2.206.988.573 0 1.117-.143 1.632-.43.316-.181.655-.501 1.017-.96l5.744.53c-.879 1.528-1.938 2.624-3.18 3.288-1.241.663-3.022.995-5.342.995-2.015 0-3.6-.284-4.755-.852-1.156-.568-2.113-1.47-2.872-2.707-.76-1.237-1.139-2.69-1.139-4.361 0-2.378.762-4.302 2.285-5.773 1.523-1.47 3.626-2.205 6.309-2.205 2.177 0 3.896.33 5.156.988a6.673 6.673 0 0 1 2.879 2.865c.659 1.25.988 2.878.988 4.884v.658zm-5.93-2.792c-.114-1.127-.417-1.934-.909-2.421-.492-.487-1.139-.73-1.94-.73-.927 0-1.667.367-2.22 1.102-.354.459-.578 1.141-.674 2.049h5.744zM121.047.086v5.786h3.208v4.254h-3.208v5.4c0 .65.062 1.079.186 1.29.19.324.525.486 1.002.486.43 0 1.032-.124 1.805-.372l.43 4.024c-1.442.316-2.788.473-4.04.473-1.45 0-2.52-.186-3.208-.559-.687-.372-1.196-.938-1.525-1.697-.33-.759-.494-1.988-.494-3.688v-5.357h-2.149V5.872h2.149V3.08l5.844-2.993z" fill="#FFF"/><path fill="#EC7D00" d="M.686 5.872h6.918l2.421 4.24 2.807-4.24h5.41V7.09l-4.164 6.03 4.164 6.122v1.842h-5.41l-2.807-4.898-3.309 4.898H.4l5.529-7.963z"/><g transform="translate(9.833 9)"><ellipse fill="#3D4C62" cx="4.292" cy="4.292" rx="4.042" ry="4.042"/><ellipse fill="#FFF" cx="4.292" cy="4.292" rx="2.292" ry="2.292"/><path fill="#FFF" d="M4.75 2.917h7.333v2.75H4.75z"/></g></g></svg>