<svg width="40" height="40" viewBox="0 0 40 40" xmlns="http://www.w3.org/2000/svg"><title>Imported Layers + Imported Layers</title><path d="M20.348 1.906c7.222 0 13.47 4.031 16.475 9.895H28.8V8.34H11.897l9.846 11.595-9.846 11.118H28.8v-2.555h7.525c-3.164 5.369-9.133 8.988-15.976 8.988-10.15 0-18.379-7.965-18.379-17.79 0-9.824 8.229-17.789 18.38-17.789M0 19.696C0 30.555 9.128 39.39 20.348 39.39c7.292 0 14.07-3.812 17.686-9.95l1.68-2.85H26.83v2.555H16.18l8.135-9.186-8.25-9.715H26.83v3.462h13.168l-1.41-2.753C35.125 4.198 28.136 0 20.348 0 9.128 0 0 8.835 0 19.695z" fill="#FFF" fill-rule="evenodd"/></svg>