<svg width="151" height="35" xmlns="http://www.w3.org/2000/svg"><g fill="#FFF" fill-rule="evenodd"><path d="M17.656 25.106c-.936 3.522-4.532 5.611-8.03 4.668-3.496-.944-5.573-4.564-4.635-8.086.938-3.522 4.532-5.612 8.03-4.668 3.497.943 5.573 4.564 4.635 8.086zm-3.453-.932a3.004 3.004 0 0 0-2.108-3.676 2.978 2.978 0 0 0-3.65 2.123 3.002 3.002 0 0 0 2.107 3.674 2.978 2.978 0 0 0 3.65-2.12zm8.059 2.175A11.336 11.336 0 0 1 11.124 34.8C4.964 34.693 0 29.631 0 23.4v-9.033c1.967 0 3.576 1.62 3.576 3.6V23.4c0 4.283 3.426 7.76 7.669 7.802 3.552 0 6.638-2.31 7.564-5.784l3.505-13.175a1.791 1.791 0 0 1 2.19-1.273 1.807 1.807 0 0 1 1.263 2.205L22.262 26.35zm-3.537-5.262L22.607 6.5a1.808 1.808 0 0 0-1.265-2.205 1.793 1.793 0 0 0-2.19 1.273l-3.098 11.647a7.825 7.825 0 0 1 2.67 3.872zm-3.722-4.559l3.794-14.262A1.806 1.806 0 0 0 17.533.061a1.792 1.792 0 0 0-2.19 1.273l-3.795 14.263a7.73 7.73 0 0 1 3.454.931zm-4.705-.867l2.89-10.863a1.807 1.807 0 0 0-1.264-2.205 1.793 1.793 0 0 0-2.19 1.273L6.06 17.67a7.757 7.757 0 0 1 4.238-2.009z" fill-rule="nonzero"/><path d="M138.088 19.122c0 2.833 2.224 5.126 5.115 5.126 2.906 0 5.132-2.293 5.132-5.126v-7.757a.364.364 0 0 0-.35-.353h-1.747a.351.351 0 0 0-.35.353v7.644c0 1.567-1.085 2.817-2.685 2.817-1.602 0-2.67-1.25-2.67-2.835v-7.626a.35.35 0 0 0-.348-.353h-1.749a.364.364 0 0 0-.348.353v7.757z"/><path d="M124.118 20.19l1.895-4.102h.058l1.937 4.102h-3.89zm8.357 3.97l-5.958-12.547c-.058-.112-.134-.205-.33-.205h-.192a.35.35 0 0 0-.33.205L119.65 24.16c-.116.243.04.486.33.486h1.683c.31 0 .482-.187.562-.374l.946-2.013h5.784l.948 2.013c.137.262.27.374.56.374h1.684c.29 0 .445-.243.33-.486z" fill-rule="nonzero"/><path d="M103.46 23.71c0 .185.17.353.363.353h1.773a.357.357 0 0 0 .361-.353v-5.15h6.216v5.149c0 .185.154.353.363.353h1.755a.371.371 0 0 0 .363-.353V11.365a.371.371 0 0 0-.363-.353h-1.755a.359.359 0 0 0-.363.353v4.942h-6.216v-4.942a.357.357 0 0 0-.361-.353h-1.773a.37.37 0 0 0-.363.353V23.71z"/><path d="M50.364 22.284c-2.336 0-4.245-1.9-4.245-4.224 0-2.323 1.91-4.26 4.245-4.26 2.337 0 4.264 1.937 4.264 4.26 0 2.325-1.927 4.224-4.264 4.224zm0-10.88a6.63 6.63 0 0 0-6.655 6.656c0 3.689 2.948 6.62 6.655 6.62 3.708 0 6.674-2.931 6.674-6.62a6.645 6.645 0 0 0-6.674-6.656z" fill-rule="nonzero"/><path d="M85.576 18.06c0 3.688 3.024 6.62 6.78 6.62 1.67 0 3.286-.57 4.562-1.787.133-.13.17-.37.02-.498l-1.165-1.18a.348.348 0 0 0-.469 0c-.788.627-1.745 1.05-2.872 1.05-2.404 0-4.207-1.955-4.207-4.26 0-2.323 1.783-4.297 4.187-4.297 1.051 0 2.104.408 2.892 1.089.15.148.338.148.469 0l1.145-1.162a.338.338 0 0 0-.019-.515c-1.276-1.127-2.647-1.716-4.543-1.716-3.756 0-6.78 2.97-6.78 6.656zm-11.551 5.65c0 .185.168.353.354.353h1.738c.19 0 .358-.168.358-.353V13.248h2.86a.353.353 0 0 0 .353-.353v-1.53a.354.354 0 0 0-.354-.353h-8.169a.356.356 0 0 0-.357.353v1.53c0 .186.15.353.357.353h2.86V23.71zm-11.332 0c0 .185.19.353.4.353h1.97c.213 0 .404-.168.404-.353V11.365c0-.185-.19-.353-.403-.353h-1.97c-.21 0-.401.168-.401.353V23.71z"/></g></svg>