<?xml version="1.0" encoding="UTF-8" standalone="no"?>
<svg width="86px" height="35px" viewBox="0 0 86 35" version="1.1" xmlns="http://www.w3.org/2000/svg" xmlns:xlink="http://www.w3.org/1999/xlink">
    <!-- Generator: Sketch 41 (35326) - http://www.bohemiancoding.com/sketch -->
    <title>illu_logo</title>
    <desc>Created with Sketch.</desc>
    <defs></defs>
    <g id="Content-real" stroke="none" stroke-width="1" fill="none" fill-rule="evenodd">
        <g id="Work-Copy" transform="translate(-867.000000, -6281.000000)" fill="#FFFFFF">
            <g id="Group-9" transform="translate(801.000000, 6218.000000)">
                <g id="Group-Copy-27">
                    <g id="illu_logo" transform="translate(66.000000, 63.730000)">
                        <path d="M13.4626263,28.3505051 C9.47961212,28.3505051 6.25050505,24.9600869 6.25050505,20.7777778 C6.25050505,16.5954687 9.47961212,13.2050505 13.4626263,13.2050505 C17.4458808,13.2050505 20.6747475,16.5954687 20.6747475,20.7777778 C20.6747475,24.9600869 17.4458808,28.3505051 13.4626263,28.3505051 Z M13.2222222,7.55555556 C5.91970909,7.55555556 0,13.4752646 0,20.7777778 C0,28.0802909 5.91970909,34 13.2222222,34 C20.5247354,34 26.4444444,28.0802909 26.4444444,20.7777778 C26.4444444,13.4752646 20.5247354,7.55555556 13.2222222,7.55555556 L13.2222222,7.55555556 Z" id="Fill-1"></path>
                        <path d="M43.3244828,27.5331528 C39.3534889,27.5331528 36.1342384,24.2190972 36.1342384,20.1310694 C36.1342384,16.0430417 39.3534889,12.72875 43.3244828,12.72875 C47.2957172,12.72875 50.5147273,16.0430417 50.5147273,20.1310694 C50.5147273,24.2190972 47.2957172,27.5331528 43.3244828,27.5331528 Z M44.3632687,7.20658333 C41.1988303,7.20658333 38.3142222,8.46245833 36.1342384,10.5246528 L36.1342384,0 L30.2222222,0 L30.2222222,32.3505278 L35.0156384,32.3505278 L36.0960141,29.7027778 C38.2803253,31.7859861 41.1805596,33.0555556 44.3632687,33.0555556 C51.1582889,33.0555556 56.6666667,27.2689444 56.6666667,20.1310694 C56.6666667,12.9929583 51.1582889,7.20658333 44.3632687,7.20658333 L44.3632687,7.20658333 Z" id="Fill-2"></path>
                        <path d="M72.8813697,28.3505051 C68.922396,28.3505051 65.7127616,24.9600869 65.7127616,20.7777778 C65.7127616,16.5954687 68.922396,13.2050505 72.8813697,13.2050505 C76.8405838,13.2050505 80.0502182,16.5954687 80.0502182,20.7777778 C80.0502182,24.9600869 76.8405838,28.3505051 72.8813697,28.3505051 Z M80.0502182,7.7962 L80.0502182,11.0274707 C77.8675899,8.87176768 74.959903,7.55555556 71.7663758,7.55555556 C64.9917899,7.55555556 59.5,13.4752646 59.5,20.7777778 C59.5,28.0802909 64.9917899,34 71.7663758,34 C74.959903,34 77.8675899,32.6837879 80.0502182,30.5280848 L80.0502182,31.3392081 L81.1652121,33.5191919 L85.9444444,33.5191919 L85.9444444,7.7962 L80.0502182,7.7962 L80.0502182,7.7962 Z" id="Fill-3"></path>
                    </g>
                </g>
            </g>
        </g>
    </g>
</svg>