<svg width="86" height="35" xmlns="http://www.w3.org/2000/svg"><path d="M13.463 29.08c-3.983 0-7.212-3.39-7.212-7.572 0-4.183 3.229-7.573 7.212-7.573 3.983 0 7.212 3.39 7.212 7.573 0 4.182-3.23 7.573-7.212 7.573zm-.24-20.794C5.92 8.286 0 14.206 0 21.508S5.92 34.73 13.222 34.73c7.303 0 13.222-5.92 13.222-13.222 0-7.303-5.92-13.222-13.222-13.222zm30.101 19.977c-3.97 0-7.19-3.314-7.19-7.402s3.22-7.402 7.19-7.402c3.972 0 7.19 3.314 7.19 7.402s-3.218 7.402-7.19 7.402zm1.04-20.326c-3.165 0-6.05 1.255-8.23 3.318V.73h-5.912v32.35h4.794l1.08-2.647c2.184 2.083 5.085 3.353 8.267 3.353 6.795 0 12.304-5.787 12.304-12.925 0-7.138-5.509-12.924-12.304-12.924zM72.881 29.08c-3.959 0-7.168-3.39-7.168-7.572 0-4.183 3.21-7.573 7.168-7.573 3.96 0 7.17 3.39 7.17 7.573 0 4.182-3.21 7.573-7.17 7.573zm7.17-20.554v3.231c-2.183-2.155-5.091-3.471-8.285-3.471-6.774 0-12.266 5.92-12.266 13.222S64.992 34.73 71.766 34.73c3.194 0 6.102-1.316 8.284-3.472v.811l1.115 2.18h4.78V8.526H80.05z" fill="#FFF" fill-rule="evenodd"/></svg>