<?xml version="1.0" encoding="UTF-8" standalone="no"?>
<svg width="46px" height="40px" viewBox="0 0 46 40" version="1.1" xmlns="http://www.w3.org/2000/svg" xmlns:xlink="http://www.w3.org/1999/xlink">
    <!-- Generator: Sketch 41 (35326) - http://www.bohemiancoding.com/sketch -->
    <title>logo-ed8a0c56 4</title>
    <desc>Created with Sketch.</desc>
    <defs>
        <linearGradient x1="50%" y1="0%" x2="50%" y2="100%" id="linearGradient-1">
            <stop stop-color="#FFFFFF" offset="1%"></stop>
            <stop stop-color="#DADADA" offset="99%"></stop>
        </linearGradient>
        <linearGradient x1="50%" y1="-1.462%" x2="50%" y2="81.134%" id="linearGradient-2">
            <stop stop-color="#F39200" offset="1%"></stop>
            <stop stop-color="#E6332A" offset="99%"></stop>
        </linearGradient>
        <linearGradient x1="50%" y1="-17.778%" x2="50%" y2="91.003%" id="linearGradient-3">
            <stop stop-color="#F39200" offset="1%"></stop>
            <stop stop-color="#E6332A" offset="99%"></stop>
        </linearGradient>
        <linearGradient x1="49.998%" y1="-56.525%" x2="49.998%" y2="114.433%" id="linearGradient-4">
            <stop stop-color="#F39200" offset="1%"></stop>
            <stop stop-color="#E6332A" offset="99%"></stop>
        </linearGradient>
    </defs>
    <g id="Content-real" stroke="none" stroke-width="1" fill="none" fill-rule="evenodd">
        <g id="Work-Copy" transform="translate(-863.000000, -4125.000000)">
            <g id="Group-7" transform="translate(800.000000, 4010.000000)">
                <g id="Group-Copy-16">
                    <g id="logo-ed8a0c56-4" transform="translate(63.000000, 114.000000)">
                        <path d="M2.91362273,41 L2.91362273,18.0144444 L0.108371864,17.2 L0.108371864,40.9644444 C0.519281849,40.8244444 0.960671422,40.7422222 1.44270044,40.7422222 C1.9743999,40.7433333 2.46320216,40.8311111 2.91362273,41 Z" id="Shape" fill="#666666"></path>
                        <polygon id="Shape" fill="#40606B" points="3.12923758 9.13111111 0.108371864 9.13111111 0.108371864 9.79777778 3.12923758 9.79777778"></polygon>
                        <path d="M2.91362273,17.0822222 L2.91362273,21.6877778 C-3.31290551e-13,21.6877778 0.109500738,17.2366667 0.109500738,17.2366667 L0.109500738,17.0822222 L2.91362273,17.0822222 L2.91362273,17.0822222 Z" id="Shape" fill="#222222" opacity="0.298"></path>
                        <polygon id="Shape" fill="url(#linearGradient-1)" points="18.0619774 3.12 18.0619774 16.4966667 9.02985981 17.7133333 9.02985981 1.90444444 18.0619774 3.12111111"></polygon>
                        <polygon id="Shape" fill="url(#linearGradient-1)" points="36.1250836 5.55222222 36.1250836 14.0655556 27.0940949 15.2788889 27.0940949 4.33555556"></polygon>
                        <path d="M9.03098869,1.90555556 L9.03098869,17.7133333 L6.54859567,18.0455556 L2.48352189,18.5955556 C1.11645598,18.7788889 0,17.8677778 0,16.5644444 L0,3.05222222 C0,1.76111111 1.09952287,0.848888889 2.45642892,1.02 L2.48352189,1.02222222 L6.62535908,1.58111111 L6.67502951,1.59 L9.02985981,1.90555556 L9.03098869,1.90555556 Z" id="Shape" fill="url(#linearGradient-2)"></path>
                        <polygon id="Shape" fill="url(#linearGradient-3)" points="27.0940949 4.33555556 27.0940949 15.2788889 18.0619774 16.4966667 18.0619774 3.12 27.0940949 4.33666667"></polygon>
                        <path d="M45.1549434,9.13222222 L45.1549434,10.4822222 C45.1549434,11.7422222 44.1073487,12.9211111 42.8001131,13.1622222 L42.7481849,13.1722222 L42.6736793,13.1844444 L38.6063478,13.7322222 L38.5781259,13.7333333 L36.1250836,14.0666667 L36.1250836,5.55333333 L38.6052189,5.88777778 L38.6063478,5.88777778 L42.6736793,6.43444444 C44.0384875,6.61555556 45.1560723,7.83222222 45.1560723,9.13222222 L45.1549434,9.13222222 Z" id="Shape" fill="url(#linearGradient-4)"></path>
                        <path d="M45.1515568,10.4822222 C45.1515568,11.74 44.1073487,12.9222222 42.8001131,13.1622222 L42.7481849,13.1744444 L42.6657772,13.1855556 L38.6063478,13.7311111 L38.576997,13.7333333 L36.121697,14.0644444 L27.0895794,15.28 L18.0597196,16.5 L9.03098869,17.7144444 L6.54859567,18.0444444 L2.48352189,18.5977778 C1.11419823,18.7811111 -7.10542736e-15,17.8677778 -7.10542736e-15,16.5655556 L-7.10542736e-15,9.81 C0.112887359,1 6.27202164,16.4744444 45.1515568,10.4833333 L45.1515568,10.4822222 Z" id="Shape" fill="#222222" opacity="0.098"></path>
                    </g>
                </g>
            </g>
        </g>
    </g>
</svg>