<svg width="46" height="40" xmlns="http://www.w3.org/2000/svg"><defs><linearGradient x1="50%" y1="0%" x2="50%" y2="100%" id="a"><stop stop-color="#FFF" offset="1%"/><stop stop-color="#DADADA" offset="99%"/></linearGradient><linearGradient x1="50%" y1="-1.462%" x2="50%" y2="81.134%" id="b"><stop stop-color="#F39200" offset="1%"/><stop stop-color="#E6332A" offset="99%"/></linearGradient><linearGradient x1="50%" y1="-17.778%" x2="50%" y2="91.003%" id="c"><stop stop-color="#F39200" offset="1%"/><stop stop-color="#E6332A" offset="99%"/></linearGradient><linearGradient x1="49.998%" y1="-56.525%" x2="49.998%" y2="114.433%" id="d"><stop stop-color="#F39200" offset="1%"/><stop stop-color="#E6332A" offset="99%"/></linearGradient></defs><g fill="none" fill-rule="evenodd"><path d="M2.914 40V17.014L.108 16.2v23.764c.411-.14.853-.222 1.335-.222a4.19 4.19 0 0 1 1.47.258z" fill="#666"/><path fill="#40606B" d="M3.13 8.131H.107v.667H3.13z"/><path d="M2.914 16.082v4.606C0 20.688.11 16.237.11 16.237v-.155h2.804z" fill="#222" opacity=".298"/><path fill="url(#a)" d="M18.062 3.12v13.377L9.03 17.713V1.904l9.032 1.217zm18.063 2.432v8.514l-9.03 1.213V4.336z" transform="translate(0 -1)"/><path d="M9.031 1.906v15.807l-2.482.333-4.065.55C1.116 18.779 0 17.868 0 16.564V3.052C0 1.762 1.1.85 2.456 1.02l.028.002 4.141.56.05.008 2.355.316h.001z" fill="url(#b)" transform="translate(0 -1)"/><path fill="url(#c)" d="M27.094 4.336v10.943l-9.032 1.218V3.12l9.032 1.217z" transform="translate(0 -1)"/><path d="M45.155 9.132v1.35c0 1.26-1.048 2.44-2.355 2.68l-.052.01-.074.012-4.068.548-.028.001-2.453.334V5.553l2.48.335h.001l4.068.546c1.364.182 2.482 1.398 2.482 2.698h-.001z" fill="url(#d)" transform="translate(0 -1)"/><path d="M45.152 9.482c0 1.258-1.045 2.44-2.352 2.68l-.052.012-.082.012-4.06.545-.029.002-2.455.331-9.032 1.216-9.03 1.22-9.029 1.214-2.482.33-4.065.554C1.114 17.78 0 16.868 0 15.566V8.81c.113-8.81 6.272 6.664 45.152.673z" fill="#222" opacity=".098"/></g></svg>