<svg width="47" height="49" viewBox="0 0 47 49" xmlns="http://www.w3.org/2000/svg" xmlns:xlink="http://www.w3.org/1999/xlink"><title>logo_nravo2_small</title><defs><path d="M.002.008v48.037h46.895V.008H.002z" id="a"/><mask id="b" x="0" y="0" width="46.895" height="48.037" fill="#fff"><use xlink:href="#a"/></mask></defs><g fill="none" fill-rule="evenodd"><use stroke="#FFF" mask="url(#b)" stroke-width="2" fill="#EF3F38" xlink:href="#a"/><path d="M36.305 36.548H25.353l-.476-3.762c.476-.635 1.478-1.223 2.62-1.661v-9.674c0-3.714-1.24-4.447-3.57-4.447-1.858 0-3.383.733-4.525 1.563v12.558c1.097.438 2.094 1.026 2.62 1.661l-.478 3.762h-10.95l-.478-3.762c.478-.635 1.477-1.223 2.619-1.661V17.542c-1.092-.391-1.999-.978-2.619-1.662l.478-3.763c2.474-.586 5.522-.733 8.187-.488v2.442c1.623-1.368 4.573-2.345 6.953-2.345 6.238 0 8.43 2.688 8.43 10.017v9.382c1.092.438 2.096 1.026 2.617 1.661l-.476 3.762z" fill="#FFF"/></g></svg>