<svg width="91" height="39" viewBox="0 0 91 39" xmlns="http://www.w3.org/2000/svg"><title>logo-belvilla</title><g fill="#FFF" fill-rule="evenodd"><path d="M89.874 35.031l-1.487.18c-4.054 1.08-8.65 1.036-12.974.99-28.381-.27-45.365-2.79-73.791-.584C.81 35.617 0 36.697 0 37.283c0 .54.81 1.08 1.622 1.08 4.865-1.08 6.442-.675 11.397-1.306 28.472-1.666 48.429 2.972 76.9.766.81 0 .81-1.08.81-1.666 0 0-.044-.946-.855-1.126M27.03 24.045c-.36-2.072-1.262-3.152-3.244-3.152-2.568 0-3.334 2.026-3.379 3.152h6.623zm-6.623 2.566c.136 2.567 1.397 3.737 3.65 3.737 1.621 0 2.973-.99 3.198-1.936h3.604c-1.126 3.512-3.604 4.998-6.938 4.998-4.685 0-7.568-3.197-7.568-7.79 0-4.457 3.063-7.834 7.568-7.834 5.046 0 7.479 4.232 7.208 8.825H20.407zM32.751 12.563h4.054V33.05h-4.054zM47.933 33.05h-4.55l-5.09-14.814h4.279l3.153 10.131h.045l3.109-10.131h4.054zM61.583 12.563h4.054V33.05h-4.054zM68.971 12.563h4.054V33.05h-4.054zM80.368 28.862c-.495-.72-.766-1.756-.766-3.061 0-1.171.226-2.162.631-3.017.496-.946 1.171-1.441 2.072-1.441.856 0 1.532.36 2.028 1.036.54.765.81 1.8.81 3.106 0 1.351-.27 2.432-.81 3.242-.496.766-1.172 1.126-2.028 1.126-.81 0-1.441-.315-1.937-.99m-3.514-8.376c-1.26 1.441-1.892 3.287-1.892 5.404 0 2.07.586 3.782 1.757 5.088 1.172 1.306 2.703 1.98 4.55 1.98 1.532 0 2.838-.494 3.965-1.44v1.126h4.415V18.326h-4.415v1.306c-1.036-.9-2.208-1.351-3.47-1.351-2.026 0-3.648.72-4.91 2.206M54.735 18.236h4.054V33.05h-4.054zM54.735 12.563h4.054v4.503h-4.054zM6.397 24.225c1.081 0 1.937.135 2.433.405.856.405 1.261 1.126 1.261 2.251 0 .9-.315 1.576-.991 2.117-.54.405-1.442.63-2.703.63H5.316v-5.403h1.081zm-.18-7.97c1.441 0 1.937.135 2.117.225.63.315.946.855.946 1.62 0 .766-.27 1.397-.9 1.892-.631.495-1.532.766-2.749.766h-.315v-4.503h.9zM.45 12.788V33.05h6.037c2.388 0 4.145-.315 5.406-.946 2.162-1.125 3.289-2.836 3.289-5.133 0-2.206-.991-3.782-2.883-4.728-.27-.135-.586-.225-.901-.315 1.711-.99 2.612-2.431 2.612-4.367 0-1.756-.765-3.062-2.207-3.918-.991-.585-2.658-.855-5.046-.855H.45z"/><path d="M65.547 3.872c-1.532-.585-2.072-.315-3.108.135-1.082.45-22.12 12.158-22.12 12.158-.495.27-.946.225-1.351-.045a1.563 1.563 0 0 1-.54-.856c-.09-.36 0-.675.18-.99.135-.18.315-.316.495-.406l22.84-12.697C63.295.405 63.475.405 64.15.405c.631 0 1.262.27 2.208.766l23.38 12.742c.226.09.361.226.496.406.225.27.27.63.18.99-.09.36-.27.676-.54.856-.406.315-.856.315-1.352.045 0 0-21.578-11.797-22.66-12.248l-.315-.09z"/></g></svg>