<svg width="120" height="120" xmlns="http://www.w3.org/2000/svg" xmlns:xlink="http://www.w3.org/1999/xlink"><defs><path id="a" d="M0 0h560v481H0z"/></defs><g fill="none" fill-rule="evenodd"><use fill="#FFF" xlink:href="#a" transform="translate(-1 20)"/><path d="M107.763 63.322c-4.338-5.303-10.426-8.556-17.145-9.158a25.718 25.718 0 0 0-2.215-.097c-5.452 0-10.552 1.856-14.73 4.975l5.31-38.58.065-.74c.12-3.837-2.811-7.047-6.545-7.179-3.738-.126-6.865 2.883-6.996 6.717l-1.495 46.373c-5.084-7.382-13.426-12.134-22.809-12.134-.992 0-1.989.057-2.977.164-7.024.764-13.36 4.167-18.011 9.577l-1.396-45.862-.032-.532c-.399-3.615-3.577-6.215-7.093-5.803-3.52.404-6.05 3.665-5.653 7.277 0 0 7.245 66.56 7.285 66.953C14.84 99.942 26.797 111 41.142 111c.985 0 1.99-.056 2.975-.163 10.436-1.133 18.928-8.06 22.793-17.325.653 1.095 1.365 2.161 2.185 3.16 4.341 5.304 10.425 8.557 17.145 9.157.736.067 1.483.1 2.213.1 12.967 0 24.008-10.403 25.135-23.685.583-6.899-1.488-13.62-5.825-18.922zM43.26 102.55a19.86 19.86 0 0 1-2.12.117c-10.18 0-18.669-7.853-19.74-18.27-.559-5.422.968-10.742 4.309-14.982 3.34-4.243 8.09-6.888 13.366-7.466a19.836 19.836 0 0 1 2.127-.114c10.18 0 18.664 7.852 19.74 18.266 1.156 11.196-6.774 21.27-17.682 22.449zm62.241-21.025c-.762 9.01-8.253 16.072-17.05 16.072-.493 0-1.005-.02-1.508-.068-4.56-.41-8.693-2.615-11.638-6.213-2.947-3.598-4.346-8.16-3.952-12.844.768-9.011 8.253-16.07 17.05-16.07.496 0 1.012.022 1.511.065 4.56.407 8.69 2.616 11.635 6.213 2.948 3.596 4.344 8.163 3.952 12.845z" fill="#85BC49"/></g></svg>