<svg width="320" height="80" viewBox="0 0 320 80" xmlns="http://www.w3.org/2000/svg" xmlns:xlink="http://www.w3.org/1999/xlink"><title>work_prodeye_logo80</title><defs><path id="a" d="M0 0h560v360H0z"/><mask id="b" x="0" y="0" width="560" height="360" fill="#fff"><use xlink:href="#a"/></mask><mask id="c" x="0" y="0" width="560" height="360" fill="#fff"><use xlink:href="#a"/></mask></defs><g fill="none" fill-rule="evenodd"><g stroke="#2CBA00" mask="url(#b)" stroke-width="2" transform="translate(-39 -39)"><use mask="url(#c)" xlink:href="#a"/></g><path d="M23.13 32.227c8.702 0 13.265 6.227 13.265 7.222 0 .983-4.563 7.221-13.265 7.221-8.714 0-13.276-6.238-13.276-7.221 0-.995 4.562-7.222 13.276-7.222zM6.06 20C3.27 20 1 22.238 1 24.995v30.01C1 57.762 3.27 60 6.06 60h32.043c2.789 0 5.06-2.238 5.06-4.995v-8.01L47.875 40l-4.714-6v-9.005c0-2.757-2.27-4.995-5.06-4.995H6.06zM17.95 39.557c0 2.638 2.206 4.767 4.92 4.767 2.713 0 4.907-2.13 4.907-4.767 0-2.638-2.194-4.768-4.908-4.768-2.713 0-4.919 2.13-4.919 4.768z" fill="#2CBA00"/><path d="M17.951 39.557c0-2.638 2.206-4.768 4.92-4.768 2.713 0 4.907 2.13 4.907 4.768s-2.194 4.767-4.908 4.767c-2.713 0-4.919-2.13-4.919-4.767m5.179-7.33c-8.714 0-13.276 6.227-13.276 7.222 0 .983 4.562 7.221 13.276 7.221 8.702 0 13.265-6.238 13.265-7.221 0-.995-4.563-7.222-13.265-7.222" fill="#FFF"/></g></svg>