<svg width="320" height="80" xmlns="http://www.w3.org/2000/svg" xmlns:xlink="http://www.w3.org/1999/xlink"><defs><path id="a" d="M0 0h480v480H0z"/></defs><g fill="none" fill-rule="evenodd"><use fill="#2A96FF" xlink:href="#a" transform="translate(-41 -39)"/><path d="M81.315 39.445l-5.76.755c-.156-2.12 1.295-3.265 2.862-3.294 1.57-.025 2.866 1.111 2.898 2.54zm-38.254-.492a3.78 3.78 0 0 0-.928-.978 2.72 2.72 0 0 0-1.396-.484c-1.113-.036-2.024.682-2.396 1.481-.406.806-.464 1.657-.464 2.471.026.819.124 1.666.556 2.465.396.79 1.334 1.488 2.456 1.479a2.803 2.803 0 0 0 1.506-.465 3.45 3.45 0 0 0 .994-1.043c.5-.783.64-1.698.541-2.537a5.387 5.387 0 0 0-.869-2.389zm15.087.154a3.812 3.812 0 0 0-.926-.98 2.696 2.696 0 0 0-1.397-.48c-1.11-.04-2.024.682-2.397 1.479-.407.804-.462 1.657-.462 2.471.023.817.124 1.665.555 2.463a2.79 2.79 0 0 0 2.458 1.48 2.795 2.795 0 0 0 1.506-.466c.422-.285.749-.648.992-1.041.5-.784.64-1.697.539-2.538a5.325 5.325 0 0 0-.868-2.388zM16.504 68.388L13.399 57.65l-9.92.063-2.416-30.226 99.772-7.395 1.004 36.998-71.434.453-13.901 10.846zm14.181-19.796l.537-14.47-3.884.038-.01 14.387 3.357.045zm62.167-2.517c-.028-1.343-1.257-2.422-2.733-2.395-1.483.024-2.663 1.141-2.635 2.49.026 1.348 1.257 2.425 2.736 2.399 1.479-.027 2.66-1.146 2.632-2.494zm-5.718-17.11l1.101 13.507 3.03-.211L92.54 28.23l-5.406.734zm-14.987 15.85a5.903 5.903 0 0 0 2.707 3.024c.697.382 1.503.632 2.463.769l.232.03c.507.058.96.083 1.381.075h.046c.42 0 .882-.033 1.343-.075.353-.03.704-.07 1.05-.132.756-.13 1.515-.364 2.344-.723l.232-.124-.016-3.029-.683.283c-.838.34-1.666.576-2.459.696-.933.134-1.799.15-2.513.05a2.77 2.77 0 0 1-1.788-1.026c-.31-.419-.4-.966-.472-1.45l8.975-1.427c-.005-.218-.02-1.641-.044-2.082a6.648 6.648 0 0 0-.452-2.043 5.686 5.686 0 0 0-1.217-1.868 5.821 5.821 0 0 0-1.926-1.276c-1.313-.53-2.852-.657-4.497-.378-1.541.257-2.982 1.072-3.843 2.168-.828 1-1.316 2.305-1.417 3.776-.094 1.473.102 3.656.554 4.762zm-7.222-14.542c.023 1.105 1.03 1.986 2.246 1.966 1.212-.021 2.179-.939 2.156-2.04-.022-1.106-1.027-1.99-2.24-1.968-1.216.019-2.185.937-2.162 2.042zm-.525 3.69l.938 14.438 3.644-.145.222-14.293H64.4zm-15.563 0l.375 19.86 3.687.2.37-6.582c-55.693-33.303.784.51 1.217.67.693.265 1.485.392 2.377.376h.034a7.308 7.308 0 0 0 1.203-.134l.113-.023c.69-.147 1.29-.39 1.782-.719a5.486 5.486 0 0 0 1.964-2.376c.356-.795.56-1.702.644-2.863.065-1.074.007-2.022-.175-2.902-.228-1.097-.662-2.035-1.29-2.788-.715-.88-1.746-1.508-2.899-1.769a7.431 7.431 0 0 0-3.44.046 4.919 4.919 0 0 0-1.727.817c-.078-.299-.19-1.78-.19-1.78l-4.045-.033zM33.623 53.986h3.856l.335-6.745s.826.55 1.288.722c.694.265 1.482.389 2.374.376h.033a7.113 7.113 0 0 0 1.204-.137l.111-.022c.692-.146 1.292-.388 1.786-.72.85-.564 1.528-1.387 1.964-2.374.354-.798.56-1.708.645-2.863.06-1.072.003-2.02-.179-2.905-.231-1.099-.663-2.036-1.286-2.786a5.237 5.237 0 0 0-2.904-1.769 7.445 7.445 0 0 0-3.439.045 4.926 4.926 0 0 0-1.726.819c-.078-.301-.244-1.663-.244-1.663l-3.437.04-.381 19.982zm-6.644-23.524c.022 1.21 1.125 2.173 2.45 2.152 1.329-.024 2.387-1.027 2.362-2.237-.026-1.206-1.126-2.17-2.454-2.147-1.326.023-2.385 1.023-2.358 2.232zm-9.157 21.755c.744-.962 1.768-3.573 1.768-3.573l6.15-14.521-5.425.001s-2.409 7.285-2.696 8.229a4982.92 4982.92 0 0 1-3.917-7.872l-4.86.24s6.476 12.176 6.57 12.406c-.667 4.758-5.108 3.05-5.108 3.05l.043 3.787s4.722 1.814 7.475-1.747z" fill="#FFF"/></g></svg>