<?xml version="1.0" encoding="UTF-8" standalone="no"?>
<svg width="120px" height="120px" viewBox="0 0 120 120" version="1.1" xmlns="http://www.w3.org/2000/svg" xmlns:xlink="http://www.w3.org/1999/xlink">
    <!-- Generator: Sketch 3.8.3 (29802) - http://www.bohemiancoding.com/sketch -->
    <title>work_toast_logo120</title>
    <desc>Created with Sketch.</desc>
    <defs></defs>
    <g id="Content-real" stroke="none" stroke-width="1" fill="none" fill-rule="evenodd">
        <g id="Desktop-HD-Copy-23" transform="translate(-760.000000, -982.000000)">
            <g id="Group-Copy-5-+-car7-Copy-+-Imported-Layers-Copy-Copy-Copy-Copy-Copy-Copy-Copy-Copy" transform="translate(760.000000, 1020.000000)">
                <g id="Group-Copy-5-+-car7-Copy">
                    <g id="Group-Copy-5">
                        <g id="Rectangle-124"></g>
                        <g id="TOAST_LOGO-3-(3)" transform="translate(4.000000, 1.000000)">
                            <path d="M86.2711326,32.924746 C87.8677303,34.2467721 88.8888889,36.2356177 88.8888889,38.4499962 L88.8888889,70.1431737 C88.8888889,74.097028 85.6336001,77.3333333 81.6559385,77.3333333 L17.8990023,77.3333333 C13.9213407,77.3333333 10.6666667,74.0976392 10.6666667,70.1431737 L10.6666667,38.4499962 C10.6666667,36.2350065 11.6878252,34.2467721 13.2838082,32.924746 C18.4172664,27.7362671 32.8167704,24 49.7780852,24 C66.7387852,24 81.1382892,27.7362671 86.2711326,32.924746" id="Fill-2" fill="#A7DAEC"></path>
                            <path d="M87.1304429,32.3657097 C88.7454602,33.7043965 89.7777778,35.7183064 89.7777778,37.9605914 L89.7777778,70.0531792 C89.7777778,74.0574806 86.4855554,77.3333333 82.4620045,77.3333333 L38.2222222,77.3333333 L62.4767097,24 C74.0616758,25.3095984 83.234377,28.4232986 87.1304429,32.3657097" id="Fill-3" fill="#99D1E6"></path>
                            <path d="M89.0103255,31.0024237 C90.0589726,31.9033849 90.9148853,33.0145703 91.5060193,34.2618192 C92.1070055,35.5329712 92.4444444,36.9432511 92.4444444,38.4160468 L92.4444444,70.1972977 C92.4444444,72.894665 91.336684,75.3468728 89.5534299,77.1218276 L89.5435776,77.1218276 C87.7597077,78.8967823 85.3003441,80 82.5959061,80 L18.7374272,80 C16.0274474,80 13.5637734,78.8973952 11.7799035,77.1218276 L11.7799035,77.1126341 C9.99726509,75.3364535 8.88888889,72.8891489 8.88888889,70.1972977 L8.88888889,38.4160468 C8.88888889,36.949993 9.22632787,35.5440033 9.82792984,34.2716256 L9.82792984,34.2612063 C10.4190638,33.0139574 11.2743608,31.9033849 12.3242393,31.0024237 C15.2817565,28.0488647 20.6770855,25.566012 27.5835008,23.8750244 C34.1167627,22.2753587 42.0909137,21.3333333 50.6672824,21.3333333 C59.2436512,21.3333333 67.2171864,22.2753587 73.7504483,23.8750244 C80.6562478,25.566012 86.0515768,28.0488647 89.0103255,31.0024237 L89.0103255,31.0024237 Z M86.8052726,36.4694804 C86.5072426,35.8406463 86.0792862,35.2902633 85.5601967,34.8600084 L85.3668466,34.6877838 C83.1026804,32.3973813 78.54787,30.3760412 72.5096827,28.8977295 C66.3926776,27.4004179 58.8520249,26.5184566 50.6672824,26.5184566 C42.48254,26.5184566 34.9412715,27.4004179 28.8242664,28.8977295 C22.7854634,30.3760412 18.230653,32.3973813 15.9671025,34.6877838 L15.7737524,34.8600084 C15.2540471,35.2902633 14.825475,35.8406463 14.5280607,36.4688675 L14.5237503,36.4664159 C14.2509666,37.0474439 14.0976413,37.7081488 14.0976413,38.4160468 L14.0976413,70.1972977 C14.0976413,71.4684496 14.6198096,72.6243767 15.4578652,73.4615963 L15.4627913,73.4566931 C16.3045414,74.2945257 17.4646418,74.8148767 18.7374272,74.8148767 L82.5959061,74.8148767 C83.8730018,74.8148767 85.033718,74.2957515 85.8754682,73.4615963 L85.8705421,73.4566931 C86.7122922,72.6188606 87.2356921,71.4641594 87.2356921,70.1972977 L87.2356921,38.4160468 C87.2356921,37.7124391 87.0805194,37.0517342 86.8052726,36.4694804 L86.8052726,36.4694804 Z" id="Fill-4" fill="#214971"></path>
                            <path d="M72.99106,45.3333333 L90.6666667,45.3333333 L90.6666667,63.1111111 L72.99106,63.1111111 C68.0457278,63.1111111 64,59.1121119 64,54.2219143 C64,49.3335643 68.0457278,45.3333333 72.99106,45.3333333" id="Fill-5" fill="#214971"></path>
                            <path d="M75.1114157,49.7777778 C77.8122001,49.7777778 80,51.9660505 80,54.6672759 C80,57.3666736 77.8122001,59.5555556 75.1114157,59.5555556 C72.4112406,59.5555556 70.2222222,57.3666736 70.2222222,54.6672759 C70.2222222,51.9660505 72.4112406,49.7777778 75.1114157,49.7777778" id="Fill-6" fill="#FFFFFF"></path>
                            <path d="M3.29686456,41.7777778 L9.77777778,41.7777778 L9.77777778,48.8888889 L3.29686456,48.8888889 C1.48340903,48.8888889 0,47.2897302 0,45.3333333 C0,43.3782308 1.48340903,41.7777778 3.29686456,41.7777778" id="Fill-7" fill="#214971"></path>
                            <path d="M39.3928626,2.66666667 L61.941095,2.66666667 C65.5186239,2.66666667 68.4444444,5.58846146 68.4444444,9.15968248 L68.4444444,35.5555556 C66.7040587,35.1816057 64.9168549,34.8593856 63.0928208,34.5913882 C58.784305,33.9581665 54.2535592,33.6184954 49.5904741,33.6184954 C45.4061823,33.6184954 41.2955511,33.8989577 37.3284955,34.423734 C35.8165822,34.6231739 34.335881,34.8587623 32.8888889,35.1267597 L32.8888889,9.15968248 C32.8888889,5.58846146 35.8147095,2.66666667 39.3928626,2.66666667" id="Fill-8" fill="#F0F4F3"></path>
                            <path d="M39.108718,0 L61.3357264,0 C63.775036,0 65.99466,1.0044148 67.605072,2.62274178 L67.6143025,2.62274178 C69.2234837,4.24106876 70.2222222,6.47702111 70.2222222,8.93638303 L70.2222222,38.2222222 L67.2352372,37.576748 C66.2783436,37.3706666 65.4377541,37.2010981 64.707315,37.0686614 C64.0014906,36.9405568 63.135671,36.8000748 62.114164,36.6478345 C60.0194592,36.338403 57.8761406,36.1013784 55.7045151,35.9441872 C53.5962723,35.791328 51.4104934,35.7114947 49.1613318,35.7114947 C47.1232407,35.7114947 45.1509936,35.7764753 43.2532059,35.9014856 C41.2434216,36.0339223 39.2859433,36.2301019 37.3924631,36.4813603 C36.6755621,36.577903 35.9605072,36.6824909 35.2552981,36.7951239 C34.5439354,36.907757 33.8374956,37.0309108 33.1421324,37.1602532 L30.2222222,37.7023772 L30.2222222,8.93638303 C30.2222222,6.47702111 31.2215761,4.24106876 32.8307573,2.62274178 L32.8399878,2.62274178 C34.4497845,1.0044148 36.6700238,0 39.108718,0 L39.108718,0 Z M61.3357264,4.9781347 L39.108718,4.9781347 C38.0250591,4.9781347 37.0392432,5.4224784 36.325419,6.13726527 L36.3297266,6.14159731 C35.6159024,6.8594785 35.1722238,7.84965945 35.1722238,8.93638303 L35.1722238,31.7866649 C35.6952846,31.7080693 36.2232683,31.6319492 36.7555597,31.5620176 C38.810881,31.289099 40.877279,31.0799233 42.9436769,30.9437734 C45.0396125,30.8045292 47.117087,30.73336 49.1613318,30.73336 C51.460338,30.73336 53.7630364,30.8193819 56.0521967,30.9858561 C58.3696638,31.1529491 60.6335942,31.4035887 62.8286036,31.7284918 C63.5295051,31.8324608 64.3448646,31.9679918 65.2722207,32.1338471 L65.2722207,8.93638303 C65.2722207,7.84965945 64.828542,6.8594785 64.1147178,6.14159731 L64.1196408,6.13726527 C63.4058166,5.4224784 62.4193854,4.9781347 61.3357264,4.9781347 L61.3357264,4.9781347 Z" id="Fill-9" fill="#214971"></path>
                            <path d="M25.8749157,33.3941039 C29.3502038,32.3749107 33.1166929,31.5747964 37.1028168,31.0305917 C40.9649335,30.5035323 44.9664812,30.2222222 49.0402122,30.2222222 C53.5797417,30.2222222 57.9903282,30.5632233 62.1855987,31.1988697 C66.2599467,31.8161007 70.139338,32.7209919 73.7386333,33.8684574 L73.7367824,33.8684574 C74.7917695,34.2119985 75.5555556,35.2273817 75.5555556,36.4281882 C75.5555556,37.9103046 74.3889002,39.1111111 72.9489353,39.1111111 C72.5664253,39.1111111 72.2036578,39.0266546 71.8766735,38.8748869 L71.8766735,38.883777 C68.6494,37.872839 65.1457322,37.0689146 61.431067,36.5069296 C57.5084891,35.9125589 53.3514696,35.5937832 49.0402122,35.5937832 C45.1071461,35.5937832 41.3344875,35.8535029 37.7765279,36.3386516 C34.1716801,36.8314204 30.709965,37.5667635 27.462949,38.5091204 C27.1945751,38.6050071 26.9070757,38.657078 26.6072372,38.657078 C25.1666554,38.657078 24,37.4562715 24,35.974155 C24,34.7530282 24.7909319,33.7236748 25.8755327,33.397914 L25.8749157,33.3941039" id="Fill-10" fill="#214971"></path>
                            <polygon id="Fill-11" fill="#214971" points="40.8888889 32.8888889 48 32.8888889 48 3.55555556 40.8888889 3.55555556"></polygon>
                        </g>
                    </g>
                </g>
            </g>
        </g>
    </g>
</svg>