<svg width="120" height="120" viewBox="0 0 120 120" xmlns="http://www.w3.org/2000/svg"><title>work_toast_logo120</title><g fill="none" fill-rule="evenodd"><path d="M90.271 71.925a7.169 7.169 0 0 1 2.618 5.525v31.693c0 3.954-3.255 7.19-7.233 7.19H21.899c-3.978 0-7.232-3.235-7.232-7.19V77.45c0-2.215 1.02-4.203 2.617-5.525C22.417 66.736 36.817 63 53.778 63c16.96 0 31.36 3.736 36.493 8.925" fill="#A7DAEC"/><path d="M91.13 71.366a7.261 7.261 0 0 1 2.648 5.595v32.092c0 4.004-3.292 7.28-7.316 7.28h-44.24L66.477 63c11.585 1.31 20.757 4.423 24.653 8.366" fill="#99D1E6"/><path d="M93.01 70.002a9.898 9.898 0 0 1 2.496 3.26 9.704 9.704 0 0 1 .938 4.154v31.781a9.753 9.753 0 0 1-2.89 6.925h-.01A9.834 9.834 0 0 1 86.596 119H22.737a9.845 9.845 0 0 1-6.957-2.878v-.01c-1.783-1.776-2.891-4.223-2.891-6.915V77.416c0-1.466.337-2.872.939-4.144v-.01a9.88 9.88 0 0 1 2.496-3.26c2.958-2.953 8.353-5.436 15.26-7.127 6.533-1.6 14.507-2.542 23.083-2.542 8.577 0 16.55.942 23.083 2.542 6.906 1.691 12.302 4.174 15.26 7.127zm-2.205 5.467a4.713 4.713 0 0 0-1.245-1.609l-.193-.172c-2.264-2.29-6.82-4.312-12.857-5.79-6.117-1.498-13.658-2.38-21.843-2.38-8.184 0-15.726.882-21.843 2.38-6.039 1.478-10.593 3.5-12.857 5.79l-.193.172c-.52.43-.949.98-1.246 1.609l-.004-.003a4.574 4.574 0 0 0-.426 1.95v31.781c0 1.271.522 2.427 1.36 3.265l.005-.005a4.636 4.636 0 0 0 3.274 1.358h63.859c1.277 0 2.438-.52 3.28-1.353l-.005-.005a4.594 4.594 0 0 0 1.365-3.26V77.416c0-.704-.155-1.364-.43-1.947z" fill="#214971"/><path d="M76.991 84.333h17.676v17.778H76.99c-4.945 0-8.991-3.999-8.991-8.89 0-4.887 4.046-8.888 8.991-8.888" fill="#214971"/><path d="M79.111 88.778c2.701 0 4.889 2.188 4.889 4.89a4.889 4.889 0 1 1-4.889-4.89" fill="#FFF"/><path d="M7.297 80.778h6.48v7.11h-6.48C5.483 87.889 4 86.29 4 84.334c0-1.955 1.483-3.555 3.297-3.555" fill="#214971"/><path d="M43.393 41.667H65.94c3.578 0 6.503 2.921 6.503 6.493v26.396a82.77 82.77 0 0 0-5.351-.965 93.065 93.065 0 0 0-13.503-.973c-4.184 0-8.294.281-12.262.806-1.511.2-2.992.435-4.44.703V48.16c0-3.572 2.927-6.493 6.505-6.493" fill="#F0F4F3"/><path d="M43.109 39h22.227a8.83 8.83 0 0 1 6.27 2.623h.008a8.938 8.938 0 0 1 2.608 6.313v29.286l-2.987-.645a79.985 79.985 0 0 0-2.528-.508 86.797 86.797 0 0 0-9.003-1.124 90.577 90.577 0 0 0-6.543-.234 89.152 89.152 0 0 0-11.769.77 88.282 88.282 0 0 0-4.25.68l-2.92.541V47.936c0-2.459 1-4.695 2.609-6.313h.009A8.828 8.828 0 0 1 43.109 39zm22.227 4.978H43.109c-1.084 0-2.07.444-2.784 1.16l.005.004a3.959 3.959 0 0 0-1.158 2.794v22.85a93.994 93.994 0 0 1 7.771-.843c2.097-.138 4.174-.21 6.218-.21 2.3 0 4.602.086 6.891.253 2.318.167 4.582.418 6.777.742.7.104 1.516.24 2.443.406V47.936a3.959 3.959 0 0 0-1.157-2.794l.005-.005a3.929 3.929 0 0 0-2.784-1.159z" fill="#214971"/><path d="M29.875 72.394c3.475-1.02 7.242-1.82 11.228-2.363a88.433 88.433 0 0 1 11.937-.809c4.54 0 8.95.341 13.146.977 4.074.617 7.953 1.522 11.553 2.67h-.002c1.055.343 1.819 1.358 1.819 2.56 0 1.481-1.167 2.682-2.607 2.682-.383 0-.745-.084-1.072-.236v.009c-3.228-1.011-6.731-1.815-10.446-2.377a82.896 82.896 0 0 0-12.39-.913c-3.934 0-7.707.26-11.264.745a72.16 72.16 0 0 0-10.314 2.17 2.536 2.536 0 0 1-.856.148c-1.44 0-2.607-1.2-2.607-2.683 0-1.221.79-2.25 1.876-2.576l-.001-.004" fill="#214971"/><path fill="#214971" d="M44.889 71.889H52V42.556h-7.111z"/></g></svg>