<svg width="320" height="80" viewBox="0 0 320 80" xmlns="http://www.w3.org/2000/svg" xmlns:xlink="http://www.w3.org/1999/xlink"><title>work_roveme_logo80</title><defs><path id="a" d="M0 0h560v360H0z"/><mask id="b" x="0" y="0" width="560" height="360" fill="#fff"><use xlink:href="#a"/></mask><mask id="c" x="0" y="0" width="560" height="360" fill="#fff"><use xlink:href="#a"/></mask><linearGradient x1="50%" y1="0%" x2="50%" y2="100%" id="d"><stop stop-color="#FFF" offset="1%"/><stop stop-color="#DADADA" offset="99%"/></linearGradient><linearGradient x1="50%" y1="-1.462%" x2="50%" y2="81.134%" id="e"><stop stop-color="#F39200" offset="1%"/><stop stop-color="#E6332A" offset="99%"/></linearGradient><linearGradient x1="50%" y1="-17.778%" x2="50%" y2="91.003%" id="f"><stop stop-color="#F39200" offset="1%"/><stop stop-color="#E6332A" offset="99%"/></linearGradient><linearGradient x1="49.998%" y1="-56.525%" x2="49.998%" y2="114.433%" id="g"><stop stop-color="#F39200" offset="1%"/><stop stop-color="#E6332A" offset="99%"/></linearGradient></defs><g fill="none" fill-rule="evenodd"><g stroke="#85BC49" mask="url(#b)" stroke-width="2" transform="translate(-38 -40)"><use mask="url(#c)" xlink:href="#a"/></g><path d="M5.914 59V36.014L3.108 35.2v23.764c.411-.14.853-.222 1.335-.222.531.001 1.02.09 1.47.258z" fill="#666"/><path fill="#40606B" d="M6.13 27.131H3.107v.667H6.13z"/><path d="M5.914 35.082v4.606c-2.914 0-2.804-4.451-2.804-4.451v-.155h2.804z" fill="#222" opacity=".298"/><path fill="url(#d)" d="M18.062 3.12v13.377L9.03 17.713V1.904l9.032 1.217zM36.125 5.552v8.514l-9.03 1.213V4.336z" transform="translate(3 18)"/><path d="M9.031 1.906v15.807l-2.482.333-4.065.55C1.116 18.779 0 17.868 0 16.564V3.052C0 1.762 1.1.85 2.456 1.02l.028.002 4.141.56.05.008 2.355.316h.001z" fill="url(#e)" transform="translate(3 18)"/><path fill="url(#f)" d="M27.094 4.336v10.943l-9.032 1.218V3.12l9.032 1.217z" transform="translate(3 18)"/><path d="M45.155 9.132v1.35c0 1.26-1.048 2.44-2.355 2.68l-.052.01-.074.012-4.068.548-.028.001-2.453.334V5.553l2.48.335h.001l4.068.546c1.364.182 2.482 1.398 2.482 2.698h-.001z" fill="url(#g)" transform="translate(3 18)"/><path d="M48.152 28.482c0 1.258-1.045 2.44-2.352 2.68l-.052.012-.082.012-4.06.545-.029.002-2.455.331-9.032 1.216-9.03 1.22-9.029 1.214-2.482.33-4.065.554C4.114 36.78 3 35.868 3 34.566V27.81c.113-8.81 6.272 6.664 45.152.673z" fill="#222" opacity=".098"/></g></svg>