<?xml version="1.0" encoding="UTF-8" standalone="no"?>
<svg width="120px" height="120px" viewBox="0 0 120 120" version="1.1" xmlns="http://www.w3.org/2000/svg" xmlns:xlink="http://www.w3.org/1999/xlink">
    <!-- Generator: Sketch 3.8.3 (29802) - http://www.bohemiancoding.com/sketch -->
    <title>work_rebbix_logo120</title>
    <desc>Created with Sketch.</desc>
    <defs>
        <rect id="path-1" x="0" y="0" width="560" height="481"></rect>
    </defs>
    <g id="Content-real" stroke="none" stroke-width="1" fill="none" fill-rule="evenodd">
        <g id="Desktop-HD-Copy-23" transform="translate(-120.000000, -2580.000000)">
            <g id="Group-Copy-5-+-car7-Copy-+-Imported-Layers-Copy-Copy-Copy-Copy" transform="translate(117.000000, 2591.000000)">
                <g id="Group-Copy-5-+-car7-Copy">
                    <g id="Group-Copy-5">
                        <g id="Rectangle-124" transform="translate(2.000000, 9.000000)">
                            <mask id="mask-2" fill="white">
                                <use xlink:href="#path-1"></use>
                            </mask>
                            <use id="Mask" fill="#FFFFFF" xlink:href="#path-1"></use>
                        </g>
                        <path d="M110.763227,52.3215461 C106.425101,47.0186931 100.336719,43.7658692 93.6180808,43.1644718 C92.881418,43.100582 92.1379341,43.0672482 91.4026355,43.0672482 C85.9513303,43.0672482 80.850622,44.9228301 76.6721065,48.0423188 L81.9829001,9.462605 L82.0483813,8.72231673 C82.1670658,4.88476231 79.2367846,1.67499457 75.5029953,1.54304825 C71.7651133,1.41665757 68.6383887,4.42642248 68.5074264,8.25981017 L67.0122736,54.63269 C61.9279357,47.2506409 53.5859108,42.4991846 44.2030086,42.4991846 C43.2112421,42.4991846 42.2140189,42.5561298 41.2263449,42.6630758 C34.2021281,43.4269755 27.8654632,46.8298016 23.2149379,52.2396005 L21.819371,6.37783904 L21.7866304,5.84588705 C21.3882868,2.230558 18.2097229,-0.369478867 14.694204,0.0430269825 C11.1745926,0.447199381 8.6440192,3.70835674 9.04099863,7.31951906 C9.04099863,7.31951906 16.2862143,73.8801852 16.3257759,74.2732463 C17.8400273,88.9415098 29.797157,100 44.14162,100 C45.1265656,100 46.131974,99.9444437 47.1169195,99.8374977 C57.5529768,98.7041483 66.0450626,91.7762723 69.9098142,82.512252 C70.5632615,83.606712 71.2753689,84.6733938 72.0952474,85.672019 C76.4361016,90.9762609 82.5203912,94.2290848 89.2403935,94.8290933 C89.9756922,94.895761 90.7232686,94.9290948 91.4531105,94.9290948 C104.419741,94.9290948 115.461499,84.5261695 116.58832,71.2440367 C117.17083,64.3453277 115.099989,57.6243991 110.763227,52.3215461 L110.763227,52.3215461 Z M46.2602079,91.5498802 C45.5535572,91.6262701 44.8428139,91.6665485 44.1402558,91.6665485 C33.9606664,91.6665485 25.4713089,83.8136594 24.3990552,73.396845 C23.8411013,67.9745459 25.3676305,62.655026 28.708533,58.4146881 C32.0494355,54.1715723 36.7981826,51.5270904 42.0748714,50.9493044 C42.7787937,50.8729145 43.4977221,50.8354139 44.2016444,50.8354139 C54.3825981,50.8354139 62.8664987,58.6869142 63.942845,69.1009507 C65.0983144,80.2969428 57.168275,90.3706968 46.2602079,91.5498802 L46.2602079,91.5498802 Z M108.501399,70.524582 C107.738817,79.5358209 100.248047,86.5970322 91.4503821,86.5970322 C90.9579094,86.5970322 90.4463379,86.5761985 89.9429516,86.5289756 C85.383827,86.1192476 81.2503298,83.9136608 78.3050425,80.3163875 C75.3583911,76.7177254 73.9587316,72.1565496 74.3529827,67.4717609 C75.1210219,58.4605221 82.6063352,51.4020886 91.4026355,51.4020886 C91.8992008,51.4020886 92.4148648,51.4243112 92.9141585,51.4673673 C97.4746474,51.8743175 101.604052,54.0826822 104.549339,57.6799554 C107.497355,61.2758398 108.892922,65.8425712 108.501399,70.524582 L108.501399,70.524582 Z" id="Shape" fill="#85BC49"></path>
                    </g>
                </g>
            </g>
        </g>
    </g>
</svg>