<?xml version="1.0" encoding="UTF-8"?>
<svg width="18px" height="18px" viewBox="0 0 18 18" version="1.1" xmlns="http://www.w3.org/2000/svg" xmlns:xlink="http://www.w3.org/1999/xlink">
    <!-- Generator: Sketch 52.1 (67048) - http://www.bohemiancoding.com/sketch -->
    <title>Path</title>
    <desc>Created with Sketch.</desc>
    <g id="Content-real" stroke="none" stroke-width="1" fill="none" fill-rule="evenodd">
        <g id="Work-Copy" transform="translate(-711.000000, -606.000000)" fill="#AAAAAA" stroke="#FFFFFF">
            <g id="Group-15" transform="translate(698.000000, 563.000000)">
                <g id="Group-16">
                    <g id="round-arrow_downward-24px" transform="translate(10.000000, 40.000000)">
                        <path d="M11,5 L11,16.17 L6.12,11.29 C5.73,10.9 5.09,10.9 4.7,11.29 C4.31,11.68 4.31,12.31 4.7,12.7 L11.29,19.29 C11.68,19.68 12.31,19.68 12.7,19.29 L19.29,12.7 C19.68,12.31 19.68,11.68 19.29,11.29 C18.9,10.9 18.27,10.9 17.88,11.29 L13,16.17 L13,5 C13,4.45 12.55,4 12,4 C11.45,4 11,4.45 11,5 Z" id="Path"></path>
                    </g>
                </g>
            </g>
        </g>
    </g>
</svg>