<svg width="54" height="50" viewBox="0 0 54 50" xmlns="http://www.w3.org/2000/svg">
  <path d="M50.204 26.16c-2.14-2.65-5.144-4.277-8.459-4.578a12.52 12.52 0 0 0-1.093-.048c-2.689 0-5.205.927-7.267 2.487l2.62-19.29.033-.37c.058-1.919-1.388-3.524-3.23-3.59-1.844-.063-3.386 1.442-3.45 3.359l-.738 23.186c-2.509-3.69-6.624-6.066-11.253-6.066-.49 0-.981.028-1.469.082-3.465.381-6.59 2.083-8.885 4.788L6.324 3.189l-.016-.266C6.112 1.115 4.544-.185 2.81.022 1.073.224-.176 1.854.02 3.66c0 0 3.575 33.28 3.594 33.477C4.361 44.47 10.26 50 17.337 50c.486 0 .982-.028 1.468-.081 5.148-.567 9.338-4.03 11.244-8.663.323.547.674 1.08 1.078 1.58 2.142 2.652 5.143 4.279 8.459 4.579.362.033.731.05 1.091.05 6.397 0 11.845-5.202 12.4-11.843.288-3.45-.734-6.81-2.873-9.461zM18.382 45.776c-.349.038-.7.058-1.046.058-5.022 0-9.21-3.926-9.74-9.135-.274-2.71.479-5.37 2.127-7.49 1.648-2.122 3.99-3.444 6.594-3.733a9.657 9.657 0 0 1 1.05-.057c5.022 0 9.207 3.925 9.738 9.132.57 5.598-3.342 10.635-8.723 11.225zm30.706-10.513c-.376 4.506-4.072 8.037-8.412 8.037-.243 0-.495-.01-.744-.035-2.249-.204-4.288-1.307-5.741-3.106-1.454-1.8-2.144-4.08-1.95-6.422.379-4.506 4.072-8.035 8.411-8.035.245 0 .5.011.746.033 2.25.203 4.287 1.307 5.74 3.106 1.455 1.798 2.143 4.081 1.95 6.422z" fill="#AAA" fill-rule="evenodd"/>
</svg>
