<?xml version="1.0" encoding="UTF-8"?>
<svg width="54px" height="50px" viewBox="0 0 54 50" version="1.1" xmlns="http://www.w3.org/2000/svg" xmlns:xlink="http://www.w3.org/1999/xlink">
    <!-- Generator: Sketch 52.1 (67048) - http://www.bohemiancoding.com/sketch -->
    <title>Shape</title>
    <desc>Created with Sketch.</desc>
    <g id="Content-real" stroke="none" stroke-width="1" fill="none" fill-rule="evenodd">
        <g id="Footer" transform="translate(-694.000000, -25.000000)" fill="#AAAAAA">
            <path d="M744.203686,51.1607731 C742.063523,48.5093466 739.059892,46.8829346 735.745331,46.5822359 C735.381907,46.550291 735.015118,46.5336241 734.652367,46.5336241 C731.96303,46.5336241 729.446656,47.461415 727.385234,49.0211594 L730.005252,29.7313025 L730.037556,29.3611584 C730.096108,27.4423812 728.650488,25.8374973 726.808467,25.7715241 C724.964427,25.7083288 723.421895,27.2132112 723.357286,29.1299051 L722.61967,52.316345 C720.111372,48.6253204 715.995932,46.2495923 711.366989,46.2495923 C710.877712,46.2495923 710.385744,46.2780649 709.898487,46.3315379 C706.433172,46.7134878 703.307053,48.4149008 701.012772,51.1198003 L700.324285,28.1889195 L700.308133,27.9229435 C700.111615,26.115279 698.543508,24.8152606 696.809168,25.0215135 C695.07281,25.2235997 693.824381,26.8541784 694.020226,28.6597595 C694.020226,28.6597595 697.594568,61.9400926 697.614085,62.1366231 C698.361123,69.4707549 704.260032,75 711.336703,75 C711.822614,75 712.318621,74.9722218 712.804532,74.9187488 C717.953038,74.3520741 722.142508,70.8881361 724.049137,66.256126 C724.371508,66.803356 724.722818,67.3366969 725.127295,67.8360095 C727.268804,70.4881305 730.270417,72.1145424 733.58565,72.4145467 C733.948401,72.4478805 734.317209,72.4645474 734.677268,72.4645474 C741.074202,72.4645474 746.521523,67.2630847 747.077427,60.6220183 C747.364801,57.1726639 746.343176,53.8121995 744.203686,51.1607731 L744.203686,51.1607731 Z M712.381883,70.7749401 C712.033266,70.8131351 711.682629,70.8332742 711.33603,70.8332742 C706.31405,70.8332742 702.125926,66.9068297 701.596942,61.6984225 C701.321682,58.9872729 702.074777,56.327513 703.722972,54.207344 C705.371167,52.0857862 707.713905,50.7635452 710.317097,50.4746522 C710.664369,50.4364572 711.019044,50.417707 711.366315,50.417707 C716.388969,50.417707 720.574401,54.3434571 721.105404,59.5504754 C721.675441,65.1484714 717.76325,70.1853484 712.381883,70.7749401 L712.381883,70.7749401 Z M743.08784,60.262291 C742.711629,64.7679105 739.016146,68.2985161 734.675922,68.2985161 C734.432967,68.2985161 734.180589,68.2880993 733.932249,68.2644878 C731.683059,68.0596238 729.643847,66.9568304 728.190824,65.1581938 C726.737128,63.3588627 726.046623,61.0782748 726.241122,58.7358805 C726.620025,54.230261 730.312816,50.7010443 734.652367,50.7010443 C734.897342,50.7010443 735.151738,50.7121556 735.398059,50.7336837 C737.647922,50.9371588 739.685115,52.0413411 741.138138,53.8399777 C742.592507,55.6379199 743.280993,57.9212856 743.08784,60.262291 L743.08784,60.262291 Z" id="Shape"></path>
        </g>
    </g>
</svg>