<svg width="25" height="25" viewBox="0 0 25 25" xmlns="http://www.w3.org/2000/svg">
  <path d="M7.31 12.74c-.02 0 .25.57.25.57.6 1.04 1.72 1.7 3.63 1.88-.27.2-.6.59-.64 1.03-.34.22-1.03.3-1.57.13-.75-.24-1.04-1.7-2.16-1.49-.25.04-.2.2.01.34.35.21.67.49.92 1.07.19.44.59 1.24 1.86 1.24.5 0 .86-.06.86-.06v1.58c0 .51-.7.66-.7.9 0 .1.24.1.43.1.36 0 1.13-.3 1.13-.83v-2.08c0-.54.3-.71.3-.71s.04 2.89-.07 3.28c-.12.45-.35.39-.35.59 0 .3.92.07 1.23-.59.23-.52.13-3.35.13-3.35h.25s.02 1.29 0 1.88c0 .62-.04 1.4.33 1.76.24.24 1.03.67 1.03.28 0-.22-.43-.4-.43-1.02v-2.8c.35 0 .3.92.3.92l.02 1.71s-.08.63.68.89c.27.09.85.12.88-.04.02-.16-.7-.39-.7-.87l.01-1.74c0-1.28-.17-1.75-.78-2.13 1.87-.19 3.04-.65 3.6-1.87.05 0 .23-.57.21-.57.13-.46.2-1 .21-1.66 0-1.75-.86-2.37-1.02-2.66.24-1.33-.04-1.93-.17-2.14-.49-.17-1.69.43-2.34.86a8.81 8.81 0 0 0-4.18.08c-1.56-1.1-2.39-.93-2.39-.93s-.53.94-.14 2.32c-.51.64-.9 1.1-.9 2.3 0 .69.09 1.3.27 1.83zM12.5 25a12.5 12.5 0 1 1 0-25 12.5 12.5 0 0 1 0 25z" fill="#CDCDCD" fill-rule="evenodd"/>
</svg>
