<svg width="25" height="25" xmlns="http://www.w3.org/2000/svg"><path d="M7.31 12.737c-.023 0 .246.57.254.57.587 1.048 1.72 1.7 3.63 1.88-.272.203-.6.59-.645 1.035-.343.218-1.033.29-1.569.124-.75-.233-1.038-1.694-2.163-1.486-.243.045-.195.203.016.337.342.218.665.49.914 1.071.19.446.593 1.242 1.863 1.242.505 0 .858-.06.858-.06s.01 1.139.01 1.581c0 .51-.701.654-.701.9 0 .097.232.106.418.106.368 0 1.135-.302 1.135-.832 0-.422.007-1.838.007-2.086 0-.542.295-.714.295-.714s.037 2.892-.07 3.28c-.126.456-.353.392-.353.595 0 .302.922.075 1.228-.59.236-.516.133-3.354.133-3.354l.252-.005s.014 1.299.006 1.892c-.01.615-.052 1.393.32 1.76.244.24 1.035.664 1.035.277 0-.225-.433-.41-.433-1.017v-2.798c.346 0 .294.92.294.92l.025 1.71s-.077.622.686.883c.268.092.843.117.87-.038.028-.155-.692-.387-.699-.868-.004-.295.014-.467.014-1.745s-.175-1.75-.784-2.127c1.879-.19 3.041-.647 3.608-1.87.044.002.231-.57.206-.57.127-.463.196-1.009.21-1.655-.004-1.755-.858-2.375-1.022-2.666.242-1.328-.04-1.932-.171-2.14-.485-.169-1.684.436-2.34.861-1.068-.307-3.327-.277-4.175.08-1.562-1.1-2.39-.932-2.39-.932s-.534.942-.14 2.32c-.515.643-.898 1.1-.898 2.307 0 .68.082 1.29.266 1.822zM12.5 25C5.597 25 0 19.403 0 12.5 0 5.596 5.597 0 12.5 0S25 5.596 25 12.5C25 19.403 19.403 25 12.5 25z" fill="#CDCDCD" fill-rule="evenodd"/></svg>
