<svg width="25" height="25" xmlns="http://www.w3.org/2000/svg"><path d="M19.515 18.39v-4.88c0-2.614-1.395-3.83-3.256-3.83-1.502 0-2.175.825-2.55 1.405V9.879H10.88c.037.799 0 8.511 0 8.511h2.83v-4.753c0-.254.017-.508.092-.69.205-.508.67-1.034 1.451-1.034 1.024 0 1.434.78 1.434 1.924v4.554h2.828zM7.9 8.717c.986 0 1.6-.654 1.6-1.47-.018-.835-.614-1.47-1.582-1.47-.967 0-1.6.634-1.6 1.47 0 .816.614 1.47 1.564 1.47H7.9zM12.5 25C5.597 25 0 19.403 0 12.5 0 5.596 5.597 0 12.5 0S25 5.596 25 12.5C25 19.403 19.403 25 12.5 25zm-3.186-6.61V9.88H6.485v8.51h2.83z" fill="#CDCDCD" fill-rule="evenodd"/></svg>
