<svg width="25" height="25" viewBox="0 0 25 25" xmlns="http://www.w3.org/2000/svg">
  <path d="M19.52 18.39v-4.88c0-2.61-1.4-3.83-3.26-3.83a2.8 2.8 0 0 0-2.55 1.4v-1.2h-2.83c.04.8 0 8.51 0 8.51h2.83v-4.75c0-.26.02-.51.1-.7.2-.5.66-1.03 1.44-1.03 1.03 0 1.44.78 1.44 1.93v4.55h2.83zM7.9 8.72c.99 0 1.6-.66 1.6-1.47-.02-.84-.61-1.47-1.58-1.47-.97 0-1.6.63-1.6 1.47 0 .81.61 1.47 1.56 1.47h.02zM12.5 25a12.5 12.5 0 1 1 0-25 12.5 12.5 0 0 1 0 25zm-3.19-6.61V9.88H6.5v8.51H9.3z" fill="#CDCDCD" fill-rule="evenodd"/>
</svg>
