<svg xmlns="http://www.w3.org/2000/svg" width="200" height="80"><path fill="#00678C" d="M150.071 35.169c-1.662 0-3.009 1.351-3.009 3.018v31.299c0 1.668 1.347 3.021 3.009 3.021 1.661 0 3.01-1.353 3.01-3.021v-31.298c0-1.668-1.349-3.019-3.01-3.019zm-124.833-.049c-.226-.092-.463-.147-.7-.182h-.226c-.18 0-.36 0-.531.023-3.567.135-6.683 1.8-8.681 4.575v-1.846c-.091-.815-.52-1.529-1.152-1.981-.463-.339-1.028-.543-1.648-.543-.622 0-1.186.204-1.648.543-.7.499-1.151 1.336-1.151 2.265v31.596c0 .906.418 1.711 1.05 2.254.52.419 1.174.681 1.885.681.711 0 1.366-.262 1.874-.681.566-.476.96-1.167 1.04-1.948v-19.332c0-6.126 4.357-9.241 8.851-9.694h.023l.486-.045h.021c.169-.034.351-.079.508-.147 1.118-.419 1.919-1.506 1.919-2.775-.001-1.268-.802-2.345-1.92-2.763zm38.379 17.508c-.497-5.108-2.472-9.661-5.6-12.82-3.24-3.273-7.529-4.926-12.747-4.926-11.729 0-18.729 9.615-18.729 18.923 0 10.748 8.049 18.856 18.729 18.856 6.751 0 12.454-3.272 15.852-8.914.112-.157.214-.327.294-.509.134-.338.214-.714.214-1.098 0-.396-.08-.771-.214-1.098-.147-.341-.35-.646-.611-.907-.248-.251-.553-.465-.891-.6-.338-.147-.711-.227-1.094-.227-.397 0-.757.079-1.095.227-.34.135-.645.349-.904.6-.113.125-.214.248-.315.386l-.057.091c-2.269 4.179-6.378 6.626-11.177 6.626-6.593 0-11.81-4.68-12.633-11.201h28.214c.394 0 .768-.08 1.106-.229.339-.135.633-.338.893-.6.258-.26.461-.566.597-.893.136-.319.216-.668.226-1.045l-.056-.633v-.009zm-30.923-2.017c1.354-6.104 6.434-10.315 12.577-10.315 5.883 0 10.682 4.122 12.127 10.315h-24.704zm144.96 3.223l11.146-13.746c1.05-1.292.854-3.193-.435-4.246-.559-.456-1.23-.677-1.899-.677-.874 0-1.74.379-2.335 1.111l-10.356 12.774-10.356-12.774c-.595-.732-1.461-1.111-2.335-1.111-.669 0-1.341.222-1.899.677-1.288 1.053-1.483 2.955-.435 4.246l11.146 13.746-11.145 13.747c-1.05 1.292-.854 3.195.434 4.248.559.455 1.23.677 1.897.677.874 0 1.74-.381 2.336-1.114l10.356-12.772 10.355 12.772c.596.733 1.462 1.114 2.336 1.114.667 0 1.339-.222 1.896-.677 1.289-1.053 1.484-2.956.435-4.248l-11.142-13.747z"/><path fill="#85BC49" d="M137.971 41.826c-3.18-3.818-7.643-6.16-12.568-6.593-.54-.046-1.085-.07-1.624-.07-3.996 0-7.735 1.336-10.798 3.582l3.893-27.777.048-.533c.087-2.763-2.061-5.074-4.798-5.169-2.74-.091-5.032 2.076-5.128 4.836l-1.096 33.388c-3.727-5.315-9.842-8.736-16.72-8.736-.727 0-1.458.041-2.182.118-5.149.55-9.794 3-13.203 6.895l-1.023-33.02-.024-.383c-.292-2.603-2.622-4.475-5.199-4.178-2.58.291-4.435 2.639-4.144 5.239 0 0 5.311 47.923 5.34 48.206 1.11 10.561 9.875 18.523 20.39 18.523.722 0 1.459-.04 2.181-.117 7.65-.816 13.875-5.804 16.708-12.474.479.788 1.001 1.556 1.602 2.275 3.182 3.819 7.642 6.161 12.568 6.593.539.048 1.087.072 1.622.072 9.505 0 17.599-7.49 18.425-17.053.427-4.967-1.091-9.806-4.27-13.624zm-47.283 28.244c-.518.055-1.039.084-1.554.084-7.462 0-13.685-5.654-14.471-13.154-.409-3.904.71-7.734 3.159-10.787 2.449-3.055 5.93-4.959 9.798-5.375.516-.055 1.043-.082 1.559-.082 7.463 0 13.682 5.653 14.471 13.151.847 8.061-4.966 15.314-12.962 16.163zm45.625-15.138c-.559 6.488-6.05 11.572-12.499 11.572-.361 0-.736-.015-1.105-.049-3.342-.295-6.372-1.883-8.531-4.473-2.16-2.591-3.186-5.875-2.897-9.248.563-6.488 6.05-11.57 12.498-11.57.364 0 .742.016 1.108.047 3.343.293 6.37 1.883 8.529 4.473 2.161 2.589 3.184 5.877 2.897 9.248z"/><path fill="#85BC49" d="M149.933 23.075c-2.302 0-4.174 1.888-4.174 4.209 0 2.321 1.872 4.21 4.174 4.21 2.303 0 4.174-1.889 4.174-4.21-.001-2.321-1.872-4.209-4.174-4.209z"/></svg>
