<svg width="121" height="58" xmlns="http://www.w3.org/2000/svg"><path d="M96.219 23.296l-6.902.905c-.186-2.54 1.553-3.913 3.43-3.947 1.88-.03 3.434 1.33 3.472 3.042zm-45.829-.59c-.292-.43-.647-.842-1.111-1.172a3.258 3.258 0 0 0-1.673-.58c-1.334-.043-2.425.818-2.87 1.775-.488.965-.557 1.986-.557 2.96.032.981.15 1.996.666 2.953.475.948 1.599 1.783 2.942 1.772a3.358 3.358 0 0 0 1.805-.558c.507-.341.899-.78 1.191-1.248.598-.939.768-2.034.648-3.04a6.453 6.453 0 0 0-1.04-2.862zm18.074.184c-.293-.43-.644-.84-1.109-1.173a3.23 3.23 0 0 0-1.673-.576c-1.33-.047-2.425.817-2.872 1.772-.488.963-.554 1.985-.554 2.96.028.98.149 1.995.665 2.951.478.948 1.602 1.783 2.945 1.773.652-.01 1.3-.214 1.804-.557a4.084 4.084 0 0 0 1.189-1.248c.598-.94.767-2.033.645-3.04a6.38 6.38 0 0 0-1.04-2.862zm-53.61 22.215l-11.885.075L.075 8.968 119.604.11l1.203 44.324-85.58.542L18.575 57.97l-3.72-12.865zm20.71-10.852l.643-17.334-4.654.045L31.54 34.2l4.023.053zm74.477-3.014c-.034-1.61-1.506-2.903-3.274-2.87-1.777.03-3.19 1.367-3.157 2.984.03 1.614 1.505 2.904 3.278 2.873 1.771-.032 3.186-1.372 3.153-2.987zm-6.851-20.5l1.32 16.183 3.63-.253 1.527-16.81-6.477.88zM85.236 29.73a7.071 7.071 0 0 0 3.242 3.622c.835.459 1.801.758 2.95.922l.28.035c.606.07 1.15.1 1.654.09h.055c.503 0 1.056-.039 1.609-.089.423-.037.843-.085 1.257-.158.906-.155 1.815-.436 2.809-.866l.278-.149-.02-3.628-.818.338a13.08 13.08 0 0 1-2.945.834c-1.119.161-2.155.18-3.012.06a3.319 3.319 0 0 1-2.14-1.23c-.372-.501-.48-1.156-.567-1.735l10.752-1.71c-.005-.262-.023-1.967-.052-2.495a7.965 7.965 0 0 0-.542-2.448 6.812 6.812 0 0 0-1.458-2.238 6.974 6.974 0 0 0-2.307-1.529c-1.573-.634-3.417-.787-5.388-.452-1.846.308-3.572 1.284-4.603 2.597-.993 1.198-1.577 2.761-1.698 4.524-.113 1.765.123 4.38.664 5.705zm-8.652-17.422c.027 1.324 1.233 2.38 2.69 2.355 1.452-.025 2.61-1.124 2.583-2.444-.026-1.324-1.23-2.383-2.683-2.357-1.457.022-2.619 1.122-2.59 2.446zm-.63 4.421l1.124 17.297 4.366-.174.266-17.123h-5.755zm-18.644 0l.449 23.792 4.417.24.443-7.885c-66.721-39.897.94.61 1.459.803.83.317 1.779.47 2.847.45h.04a8.755 8.755 0 0 0 1.442-.16l.135-.028c.827-.177 1.546-.468 2.135-.862 1.02-.68 1.833-1.663 2.353-2.846.427-.952.672-2.039.771-3.43.078-1.286.009-2.422-.209-3.477-.274-1.313-.793-2.438-1.545-3.34-.857-1.054-2.092-1.807-3.474-2.118a8.903 8.903 0 0 0-4.12.054 5.893 5.893 0 0 0-2.07.979c-.093-.358-.227-2.134-.227-2.134l-4.846-.038zM39.083 40.716h4.62l.401-8.081s.99.66 1.543.866c.831.317 1.775.465 2.844.45h.039c.415-.007.86-.056 1.443-.164l.133-.027c.83-.175 1.548-.465 2.14-.861 1.017-.678 1.83-1.663 2.352-2.845.425-.956.67-2.047.773-3.43.073-1.285.004-2.42-.214-3.48-.277-1.317-.795-2.44-1.541-3.338-.862-1.055-2.094-1.807-3.479-2.12a8.919 8.919 0 0 0-4.12.054 5.901 5.901 0 0 0-2.068.981c-.093-.36-.292-1.992-.292-1.992l-4.118.049-.456 23.938zm-7.96-28.183c.027 1.45 1.348 2.604 2.935 2.579 1.592-.03 2.86-1.23 2.83-2.68-.03-1.445-1.349-2.6-2.94-2.572-1.588.027-2.857 1.226-2.825 2.673zm-10.97 26.063c.892-1.152 2.118-4.28 2.118-4.28l7.368-17.397-6.5.002s-2.885 8.728-3.23 9.858a6573.606 6573.606 0 0 1-4.691-9.431l-5.824.289s7.76 14.587 7.872 14.862c-.8 5.7-6.12 3.653-6.12 3.653l.052 4.538s5.657 2.173 8.956-2.094z" fill="#FFF" fill-rule="evenodd"/></svg>
