<svg width="38" height="35" xmlns="http://www.w3.org/2000/svg"><path d="M35.85 18.136a8.798 8.798 0 0 0-6.807-3.195c-1.916 0-3.71.64-5.178 1.718L25.732 3.34l.023-.256A2.396 2.396 0 0 0 23.454.607a2.392 2.392 0 0 0-2.46 2.319l-.525 16.008c-1.787-2.549-4.72-4.189-8.018-4.189a9.746 9.746 0 0 0-7.378 3.362l-.49-15.831-.012-.184A2.258 2.258 0 0 0 2.078.09 2.267 2.267 0 0 0 .09 2.601l2.561 23.112c.533 5.064 4.736 8.881 9.778 8.881.347 0 .7-.019 1.046-.056 3.669-.39 6.654-2.782 8.013-5.98a8.795 8.795 0 0 0 7.573 4.286c4.558 0 8.44-3.591 8.836-8.176a8.947 8.947 0 0 0-2.048-6.532zM13.173 31.677c-.248.027-.498.04-.745.04-3.579 0-6.563-2.71-6.94-6.306a7.038 7.038 0 0 1 1.515-5.172 6.933 6.933 0 0 1 5.446-2.616c3.58 0 6.562 2.71 6.94 6.305.406 3.865-2.381 7.342-6.216 7.75zm21.88-7.258c-.268 3.111-2.901 5.549-5.994 5.549a5.977 5.977 0 0 1-4.621-2.168 6.069 6.069 0 0 1-1.39-4.434c.27-3.111 2.902-5.548 5.994-5.548a5.97 5.97 0 0 1 4.622 2.167 6.07 6.07 0 0 1 1.389 4.434z" fill="#85BC49" fill-rule="nonzero"/></svg>
