<svg xmlns="http://www.w3.org/2000/svg" width="200" height="80"><path fill="#00678C" d="M150.071 35.169a3.013 3.013 0 0 0-3.009 3.018v31.299a3.015 3.015 0 0 0 3.009 3.021 3.017 3.017 0 0 0 3.01-3.021V38.188a3.015 3.015 0 0 0-3.01-3.019zM25.238 35.12a3.02 3.02 0 0 0-.7-.182h-.226c-.18 0-.36 0-.531.023-3.567.135-6.683 1.8-8.681 4.575V37.69a2.814 2.814 0 0 0-1.152-1.981 2.773 2.773 0 0 0-3.296 0 2.78 2.78 0 0 0-1.151 2.265V69.57c0 .906.418 1.711 1.05 2.254.52.419 1.174.681 1.885.681.711 0 1.366-.262 1.874-.681a2.947 2.947 0 0 0 1.04-1.948V50.544c0-6.126 4.357-9.241 8.851-9.694h.023l.486-.045h.021c.169-.034.351-.079.508-.147a2.967 2.967 0 0 0 1.919-2.775 2.953 2.953 0 0 0-1.92-2.763zm38.379 17.508c-.497-5.108-2.472-9.661-5.6-12.82-3.24-3.273-7.529-4.926-12.747-4.926-11.729 0-18.729 9.615-18.729 18.923 0 10.748 8.049 18.856 18.729 18.856 6.751 0 12.454-3.272 15.852-8.914.112-.157.214-.327.294-.509a2.907 2.907 0 0 0 0-2.196 2.89 2.89 0 0 0-.611-.907 2.653 2.653 0 0 0-.891-.6 2.747 2.747 0 0 0-2.189 0 2.8 2.8 0 0 0-.904.6 4.727 4.727 0 0 0-.315.386l-.057.091c-2.269 4.179-6.378 6.626-11.177 6.626-6.593 0-11.81-4.68-12.633-11.201h28.214c.394 0 .768-.08 1.106-.229a2.61 2.61 0 0 0 .893-.6 2.8 2.8 0 0 0 .597-.893c.136-.319.216-.668.226-1.045l-.056-.633v-.009zm-30.923-2.017c1.354-6.104 6.434-10.315 12.577-10.315 5.883 0 10.682 4.122 12.127 10.315H32.694zm144.96 3.223L188.8 40.088a3.024 3.024 0 0 0-.435-4.246 2.991 2.991 0 0 0-1.899-.677 3 3 0 0 0-2.335 1.111L173.775 49.05l-10.356-12.774a3 3 0 0 0-2.335-1.111c-.669 0-1.341.222-1.899.677a3.026 3.026 0 0 0-.435 4.246l11.146 13.746-11.145 13.747a3.027 3.027 0 0 0 .434 4.248 3.003 3.003 0 0 0 4.233-.437l10.356-12.772 10.355 12.772a3.003 3.003 0 0 0 4.232.437 3.027 3.027 0 0 0 .435-4.248l-11.142-13.747z"/><path fill="#85BC49" d="M137.971 41.826c-3.18-3.818-7.643-6.16-12.568-6.593-.54-.046-1.085-.07-1.624-.07-3.996 0-7.735 1.336-10.798 3.582l3.893-27.777.048-.533c.087-2.763-2.061-5.074-4.798-5.169-2.74-.091-5.032 2.076-5.128 4.836L105.9 43.49c-3.727-5.315-9.842-8.736-16.72-8.736-.727 0-1.458.041-2.182.118-5.149.55-9.794 3-13.203 6.895l-1.023-33.02-.024-.383c-.292-2.603-2.622-4.475-5.199-4.178-2.58.291-4.435 2.639-4.144 5.239 0 0 5.311 47.923 5.34 48.206 1.11 10.561 9.875 18.523 20.39 18.523.722 0 1.459-.04 2.181-.117 7.65-.816 13.875-5.804 16.708-12.474a18.528 18.528 0 0 0 1.602 2.275c3.182 3.819 7.642 6.161 12.568 6.593a18.4 18.4 0 0 0 1.622.072c9.505 0 17.599-7.49 18.425-17.053a18.664 18.664 0 0 0-4.27-13.624zM90.688 70.07c-.518.055-1.039.084-1.554.084-7.462 0-13.685-5.654-14.471-13.154a14.682 14.682 0 0 1 3.159-10.787 14.456 14.456 0 0 1 9.798-5.375 14.802 14.802 0 0 1 1.559-.082c7.463 0 13.682 5.653 14.471 13.151.847 8.061-4.966 15.314-12.962 16.163zm45.625-15.138c-.559 6.488-6.05 11.572-12.499 11.572-.361 0-.736-.015-1.105-.049a12.463 12.463 0 0 1-8.531-4.473 12.66 12.66 0 0 1-2.897-9.248c.563-6.488 6.05-11.57 12.498-11.57.364 0 .742.016 1.108.047 3.343.293 6.37 1.883 8.529 4.473 2.161 2.589 3.184 5.877 2.897 9.248zM149.933 23.075c-2.302 0-4.174 1.888-4.174 4.209 0 2.321 1.872 4.21 4.174 4.21 2.303 0 4.174-1.889 4.174-4.21-.001-2.321-1.872-4.209-4.174-4.209z"/></svg>
