<svg width="47" height="40" viewBox="0 0 47 40" xmlns="http://www.w3.org/2000/svg">
  <g fill="none" fill-rule="evenodd">
    <path d="M44.1 18.06c-.15-.31-.37-.6-.63-.8l-.1-.1c-1.14-1.15-3.45-2.17-6.51-2.91a47.8 47.8 0 0 0-11.06-1.2c-4.15 0-7.97.44-11.07 1.2-3.05.74-5.36 1.76-6.5 2.91l-.1.1c-.27.2-.49.49-.64.8-.14.3-.21.63-.21.98v16.02c0 .64.26 1.22.68 1.64.43.42 1.02.69 1.67.69h32.34c.65 0 1.23-.26 1.66-.69.42-.42.69-1 .69-1.64V19.04c0-.35-.08-.68-.22-.98m1.12-2.75a4.98 4.98 0 0 1 1.74 3.73v16.02A5 5 0 0 1 41.97 40H9.63a5 5 0 0 1-3.53-1.45 4.9 4.9 0 0 1-1.46-3.49V19.04c0-.74.17-1.44.47-2.08v-.01c.3-.63.74-1.19 1.27-1.64 1.5-1.5 4.23-2.74 7.73-3.6 3.3-.8 7.34-1.28 11.69-1.28 4.34 0 8.38.48 11.69 1.29 3.5.85 6.23 2.1 7.73 3.59" fill="#FFF"/>
    <path d="M36.96 23.19h8.84v8.7h-8.84a4.44 4.44 0 0 1-4.5-4.35c0-2.4 2.03-4.35 4.5-4.35" fill="#FFF"/>
    <path d="M37.1 24.93c1.28 0 2.32 1.17 2.32 2.6 0 1.45-1.04 2.61-2.32 2.61-1.28 0-2.32-1.16-2.32-2.6 0-1.44 1.04-2.61 2.32-2.61" fill="#5A5452"/>
    <path d="M1.56 20.87h3.08v3.48H1.56C.7 24.35 0 23.57 0 22.6s.7-1.74 1.56-1.74" fill="#FFF"/>
    <path d="M19.41 1.16h11.03a3.2 3.2 0 0 1 3.18 3.2V17.4a45.14 45.14 0 0 0-17.4-.21l.01-12.82a3.2 3.2 0 0 1 3.18-3.2" fill="#56504E"/>
    <path d="M30.98 2.5H20.03c-.53 0-1.02.21-1.37.57a2 2 0 0 0-.57 1.4v11.44a41.75 41.75 0 0 1 3.83-.42 45.64 45.64 0 0 1 11 .6V4.46a2 2 0 0 0-.57-1.4 1.92 1.92 0 0 0-1.37-.58M20.03 0h10.95c1.2 0 2.3.5 3.1 1.31a4.5 4.5 0 0 1 1.28 3.16v14.66l-1.47-.32a39.89 39.89 0 0 0-8.9-.94 43.69 43.69 0 0 0-7.9.73l-1.44.27V4.47c0-1.23.5-2.35 1.29-3.16A4.32 4.32 0 0 1 20.04 0" fill="#FFF"/>
    <path d="M13.1 17.3c1.72-.52 3.58-.94 5.56-1.23a41.56 41.56 0 0 1 12.4.1c2.02.31 3.94.79 5.72 1.38.52.18.9.71.9 1.34 0 .77-.58 1.4-1.29 1.4a1.2 1.2 0 0 1-.53-.12 33.2 33.2 0 0 0-5.17-1.24 38.95 38.95 0 0 0-16.8 1.05 1.2 1.2 0 0 1-.43.07c-.7 0-1.29-.62-1.29-1.4 0-.63.4-1.17.93-1.34" fill="#FFF"/>
    <path d="M20.87 1.16h4.06v15.07h-4.06V1.16z" fill="#FFF"/>
  </g>
</svg>
