<svg width="47" height="40" xmlns="http://www.w3.org/2000/svg"><g fill="none" fill-rule="evenodd"><path d="M44.1 18.063a2.379 2.379 0 0 0-.63-.811l-.098-.087c-1.147-1.155-3.454-2.173-6.512-2.918-3.098-.754-6.917-1.2-11.062-1.2-4.146 0-7.965.446-11.063 1.2-3.06.745-5.366 1.763-6.513 2.918l-.097.087c-.263.217-.48.494-.631.81h-.002a2.293 2.293 0 0 0-.216.982V35.06c0 .64.264 1.223.689 1.645l.002-.003a2.355 2.355 0 0 0 1.659.685h32.342c.647 0 1.235-.262 1.661-.682l-.002-.003a2.308 2.308 0 0 0 .691-1.642V19.044c0-.355-.078-.688-.218-.981m1.117-2.755a4.981 4.981 0 0 1 1.264 1.642c.305.64.476 1.351.476 2.094V35.06c0 1.36-.561 2.595-1.465 3.49h-.005A4.994 4.994 0 0 1 41.968 40H9.626a4.999 4.999 0 0 1-3.524-1.45v-.005a4.899 4.899 0 0 1-1.464-3.485V19.044c0-.74.17-1.448.475-2.089v-.005c.3-.629.733-1.188 1.264-1.642 1.499-1.489 4.23-2.74 7.73-3.592 3.308-.806 7.347-1.281 11.69-1.281 4.344 0 8.382.475 11.691 1.28 3.498.853 6.23 2.104 7.729 3.593" fill="#FFF"/><path d="M36.96 23.188h8.837v8.696H36.96c-2.473 0-4.495-1.956-4.495-4.348 0-2.391 2.022-4.348 4.495-4.348" fill="#FFF"/><path d="M37.101 24.928c1.281 0 2.32 1.167 2.32 2.608 0 1.44-1.039 2.609-2.32 2.609-1.28 0-2.318-1.168-2.318-2.609 0-1.44 1.038-2.608 2.318-2.608" fill="#5A5452"/><path d="M1.564 20.87h3.074v3.478H1.564c-.86 0-1.564-.783-1.564-1.74 0-.956.704-1.738 1.564-1.738" fill="#FFF"/><path d="M19.413 1.16h11.03c1.75 0 3.18 1.441 3.18 3.204V17.39a40.124 40.124 0 0 0-2.617-.475 45.138 45.138 0 0 0-6.605-.48 45.38 45.38 0 0 0-5.998.397c-.739.098-1.463.214-2.171.347V4.364c0-1.763 1.431-3.205 3.181-3.205" fill="#56504E"/><path d="M30.984 2.492H20.03a1.92 1.92 0 0 0-1.372.58l.003.002c-.352.36-.57.855-.57 1.398V15.91a45.78 45.78 0 0 1 10.289-.4c1.141.082 2.257.207 3.338.37.345.052.748.12 1.204.203V4.473c0-.544-.218-1.04-.57-1.399l.002-.002a1.92 1.92 0 0 0-1.371-.58M20.03 0h10.953c1.201 0 2.295.503 3.089 1.313h.004a4.508 4.508 0 0 1 1.285 3.16V19.13l-1.471-.323a39.89 39.89 0 0 0-1.246-.254 42.256 42.256 0 0 0-7.66-.679 43.083 43.083 0 0 0-6.853.542c-.35.057-.698.118-1.041.183l-1.439.271V4.472c0-1.23.492-2.35 1.285-3.16h.005A4.318 4.318 0 0 1 20.03 0" fill="#FFF"/><path d="M13.102 17.307c1.72-.532 3.583-.95 5.555-1.233 1.91-.275 3.89-.422 5.906-.422 2.246 0 4.428.178 6.503.51 2.016.322 3.935.794 5.716 1.393h-.001c.522.179.9.708.9 1.335 0 .773-.577 1.4-1.29 1.4-.189 0-.368-.044-.53-.123v.004a33.2 33.2 0 0 0-5.168-1.24 38.954 38.954 0 0 0-6.13-.476c-1.946 0-3.813.135-5.573.389-1.784.256-3.496.64-5.103 1.132-.132.05-.275.077-.423.077-.713 0-1.29-.627-1.29-1.4 0-.637.392-1.174.928-1.344v-.002" fill="#FFF"/><path d="M20.87 1.16h4.058v15.072H20.87V1.159z" fill="#FFF"/></g></svg>
