<svg width="121" height="58" viewBox="0 0 121 58" xmlns="http://www.w3.org/2000/svg">
  <path d="M96.22 23.3l-6.9.9c-.19-2.54 1.55-3.91 3.43-3.95 1.88-.03 3.43 1.33 3.47 3.05zm-45.83-.6c-.3-.42-.65-.84-1.11-1.17a3.26 3.26 0 0 0-1.67-.58 3.12 3.12 0 0 0-2.87 1.78 6.39 6.39 0 0 0-.56 2.96c.03.98.15 2 .67 2.95.47.95 1.6 1.78 2.94 1.77.65 0 1.3-.21 1.8-.55.5-.35.9-.78 1.2-1.25.6-.94.76-2.04.64-3.04-.12-1.03-.46-2-1.04-2.86zm18.07.19c-.29-.43-.64-.84-1.1-1.17a3.23 3.23 0 0 0-1.68-.58 3.12 3.12 0 0 0-2.87 1.77 6.36 6.36 0 0 0-.55 2.96c.02.98.15 2 .66 2.95.48.95 1.6 1.79 2.95 1.78.65-.01 1.3-.22 1.8-.56.5-.34.9-.78 1.19-1.25.6-.94.77-2.03.64-3.04-.11-1.03-.46-2-1.04-2.86zM14.86 45.1l-11.9.08L.09 8.97 119.6.1l1.2 44.32-85.57.55-16.66 12.99-3.72-12.87zm20.7-10.85l.65-17.33-4.66.04V34.2l4.01.05zm74.48-3.01c-.03-1.61-1.5-2.9-3.27-2.87-1.78.03-3.2 1.37-3.16 2.98.03 1.62 1.5 2.9 3.28 2.88 1.77-.04 3.18-1.38 3.15-3zm-6.85-20.5l1.32 16.18 3.63-.25 1.53-16.81-6.48.88zM85.24 29.73a7.07 7.07 0 0 0 3.24 3.62c.83.46 1.8.76 2.95.92l.28.04c.6.07 1.15.1 1.65.09h.06a18.14 18.14 0 0 0 2.86-.25c.9-.15 1.82-.43 2.81-.87l.28-.14-.02-3.63-.82.34c-1 .4-2 .69-2.94.83-1.12.16-2.16.18-3.01.06a3.32 3.32 0 0 1-2.15-1.23 3.82 3.82 0 0 1-.56-1.74l10.75-1.7c0-.27-.02-1.97-.05-2.5a7.97 7.97 0 0 0-.54-2.45 6.81 6.81 0 0 0-3.77-3.76 9.92 9.92 0 0 0-5.39-.46 7.54 7.54 0 0 0-4.6 2.6 7.85 7.85 0 0 0-1.7 4.52c-.11 1.77.12 4.38.67 5.7zM76.58 12.3c.03 1.32 1.24 2.38 2.7 2.35 1.45-.02 2.6-1.12 2.58-2.44-.03-1.33-1.23-2.39-2.69-2.36-1.45.02-2.61 1.12-2.59 2.45zm-.63 4.42l1.13 17.3 4.36-.18.27-17.12h-5.76zm-18.64 0l.45 23.79 4.42.24.44-7.89c-66.72-39.9.94.61 1.46.8.83.32 1.78.48 2.85.46h.04c.41-.01.85-.06 1.44-.16l.13-.03a6.14 6.14 0 0 0 4.49-3.7c.43-.96.67-2.05.77-3.44.08-1.28.01-2.42-.2-3.47a7.54 7.54 0 0 0-1.55-3.34 6.25 6.25 0 0 0-3.48-2.12 8.9 8.9 0 0 0-4.12.05 5.9 5.9 0 0 0-2.07.98c-.09-.36-.22-2.13-.22-2.13l-4.85-.04zM39.08 40.72h4.62l.4-8.09s1 .66 1.55.87a7.6 7.6 0 0 0 2.84.45h.04c.41 0 .86-.06 1.44-.16l.14-.03a6.07 6.07 0 0 0 4.49-3.7c.42-.96.67-2.05.77-3.44.07-1.28 0-2.42-.21-3.48a7.6 7.6 0 0 0-1.54-3.33 6.27 6.27 0 0 0-3.48-2.12 8.92 8.92 0 0 0-4.12.05 5.9 5.9 0 0 0-2.07.98c-.1-.36-.3-2-.3-2l-4.11.06-.46 23.94zm-7.96-28.19c.03 1.45 1.35 2.6 2.94 2.58 1.59-.03 2.86-1.23 2.83-2.68-.03-1.44-1.35-2.6-2.94-2.57-1.59.03-2.86 1.23-2.83 2.67zM20.15 38.6c.9-1.16 2.12-4.28 2.12-4.28l7.37-17.4h-6.5s-2.89 8.73-3.23 9.86l-4.7-9.43-5.82.29s7.76 14.58 7.88 14.86c-.8 5.7-6.12 3.65-6.12 3.65l.05 4.54s5.66 2.17 8.95-2.1z" fill="#FFF" fill-rule="evenodd"/>
</svg>
