<svg width="41" height="61" xmlns="http://www.w3.org/2000/svg" xmlns:xlink="http://www.w3.org/1999/xlink"><defs><path d="M16.52.027C8.023.491.947 7.238.092 15.731c-.791 7.863 3.604 14.784 10.158 17.785l3.119 1.844c.713.325 1.251.72 1.735 1.286.961 1.124 1.416 2.597 1.416 4.077v13.273c0 .555.451 1.004.996 1.004h-.046c.55 0 .996-.443.996-1.004V40.723c0-1.48.455-2.953 1.416-4.077.484-.565 1.022-.961 1.735-1.286l3.113-1.723C30.771 30.796 35 24.643 35 17.553 35 7.533 26.63-.526 16.52.027z" id="b"/><filter x="-15%" y="-12.3%" width="130%" height="119.1%" filterUnits="objectBoundingBox" id="a"><feOffset dy="-1.5" in="SourceAlpha" result="shadowOffsetOuter1"/><feGaussianBlur stdDeviation="1.5" in="shadowOffsetOuter1" result="shadowBlurOuter1"/><feColorMatrix values="0 0 0 0 0 0 0 0 0 0 0 0 0 0 0 0 0 0 0.25 0" in="shadowBlurOuter1"/></filter></defs><g transform="translate(3 4)" fill="none" fill-rule="evenodd"><ellipse fill="#000" cx="17.5" cy="54.5" rx="3" ry="2.5"/><use fill="#000" filter="url(#a)" xlink:href="#b"/><use fill="#FFF" xlink:href="#b"/><path d="M2 17.5C2 8.94 8.94 2 17.5 2 26.06 2 33 8.94 33 17.5 33 26.06 26.06 33 17.5 33 8.94 33 2 26.06 2 17.5" fill="#85BC49"/><path d="M13.5 17.5a4 4 0 1 1 8 0 4 4 0 0 1-8 0" fill="#FFF"/></g></svg>