<?xml version="1.0" encoding="UTF-8"?>
<svg width="124px" height="35px" viewBox="0 0 124 35" version="1.1" xmlns="http://www.w3.org/2000/svg" xmlns:xlink="http://www.w3.org/1999/xlink">
    <!-- Generator: Sketch 52.1 (67048) - http://www.bohemiancoding.com/sketch -->
    <title>logo_rebbix</title>
    <desc>Created with Sketch.</desc>
    <g id="Content-real" stroke="none" stroke-width="1" fill="none" fill-rule="evenodd">
        <g id="Work-Copy" transform="translate(-118.000000, -228.000000)">
            <g id="logo_rebbix" transform="translate(118.000000, 215.000000)">
                <path d="M96.645326,21.3486301 C95.5067182,21.3486301 94.5839116,22.2739726 94.5839116,23.4157534 L94.5839116,44.8534247 C94.5839116,45.9958904 95.5067182,46.9226027 96.645326,46.9226027 C97.7832486,46.9226027 98.7074254,45.9958904 98.7074254,44.8534247 L98.7074254,23.4164384 C98.7074254,22.2739726 97.7832486,21.3486301 96.645326,21.3486301 Z M11.1243757,21.3150685 C10.969547,21.2520548 10.8071823,21.2143836 10.6448177,21.190411 L10.489989,21.190411 C10.366674,21.190411 10.2433591,21.190411 10.1262099,21.2061644 C7.68251934,21.2986301 5.5478011,22.4390411 4.17900552,24.339726 L4.17900552,23.0753425 C4.11666298,22.5171233 3.82276243,22.0280822 3.38979006,21.7184932 C3.07259669,21.4863014 2.68552486,21.3465753 2.26077348,21.3465753 C1.83465193,21.3465753 1.44826519,21.4863014 1.13175691,21.7184932 C0.652198895,22.060274 0.343226519,22.6335616 0.343226519,23.269863 L0.343226519,44.9109589 C0.343226519,45.5315068 0.62959116,46.0828767 1.06256354,46.4547945 C1.41880663,46.7417808 1.86685083,46.9212329 2.35394475,46.9212329 C2.84103867,46.9212329 3.28976796,46.7417808 3.63779006,46.4547945 C4.02554696,46.1287671 4.29546961,45.6554795 4.35027624,45.1205479 L4.35027624,31.8794521 C4.35027624,27.6835616 7.33518232,25.55 10.4139448,25.239726 L10.4297017,25.239726 L10.7626519,25.2089041 L10.7770387,25.2089041 C10.8928177,25.1856164 11.0175028,25.1547945 11.1250608,25.1082192 C11.8909834,24.8212329 12.4397348,24.0767123 12.4397348,23.2075342 C12.4390497,22.3390411 11.8902983,21.6013699 11.1243757,21.3150685 Z M37.4171713,33.3068493 C37.0766851,29.8082192 35.7236464,26.689726 33.5807072,24.5260274 C31.3610387,22.2842466 28.4227182,21.1520548 24.8479558,21.1520548 C16.8126188,21.1520548 12.0170387,27.7376712 12.0170387,34.1130137 C12.0170387,41.4746575 17.5312707,47.0280822 24.8479558,47.0280822 C29.4729503,47.0280822 33.3799779,44.7869863 35.7078895,40.9226027 C35.7846188,40.8150685 35.8544972,40.6986301 35.9093039,40.5739726 C36.001105,40.3424658 36.0559116,40.0849315 36.0559116,39.8219178 C36.0559116,39.5506849 36.001105,39.2938356 35.9093039,39.069863 C35.8085967,38.8363014 35.6695249,38.6273973 35.4907182,38.4486301 C35.3208177,38.2767123 35.1118674,38.130137 34.8803094,38.0376712 C34.6487514,37.9369863 34.3932155,37.8821918 34.1308287,37.8821918 C33.8588508,37.8821918 33.612221,37.9363014 33.380663,38.0376712 C33.1477348,38.130137 32.9387845,38.2767123 32.7613481,38.4486301 C32.6839337,38.5342466 32.6147403,38.6184932 32.545547,38.7130137 L32.5064972,38.7753425 C30.9520442,41.6376712 28.1370387,43.3136986 24.849326,43.3136986 C20.3325746,43.3136986 16.7584972,40.1082192 16.194674,35.6417808 L35.5236022,35.6417808 C35.7935249,35.6417808 36.0497459,35.5869863 36.2813039,35.4849315 C36.513547,35.3924658 36.7149613,35.2534247 36.8930829,35.0739726 C37.0698343,34.8958904 37.2089061,34.6863014 37.3020773,34.4623288 C37.3952486,34.2438356 37.4500552,34.0047945 37.4569061,33.7465753 L37.4185414,33.3130137 L37.4185414,33.3068493 L37.4171713,33.3068493 Z M16.2323536,31.9253425 C17.1599558,27.7445205 20.6401768,24.860274 24.8486409,24.860274 C28.8789834,24.860274 32.1666961,27.6835616 33.1566409,31.9253425 L16.2323536,31.9253425 Z M115.541967,34.1328767 L123.177901,24.7178082 C123.897238,23.8328767 123.762961,22.5308219 122.87989,21.809589 C122.496928,21.4972603 122.037238,21.3458904 121.578917,21.3458904 C120.980155,21.3458904 120.386873,21.6054795 119.979249,22.1068493 L112.88453,30.8561644 L105.789812,22.1068493 C105.382188,21.6054795 104.788906,21.3458904 104.190144,21.3458904 C103.731823,21.3458904 103.271448,21.4979452 102.889171,21.809589 C102.006785,22.5308219 101.873193,23.8335616 102.59116,24.7178082 L110.227094,34.1328767 L102.591845,43.5486301 C101.872508,44.4335616 102.006785,45.7369863 102.889171,46.4582192 C103.272133,46.769863 103.731823,46.9219178 104.188773,46.9219178 C104.787536,46.9219178 105.380818,46.6609589 105.789127,46.1589041 L112.883845,37.4109589 L119.977878,46.1589041 C120.386188,46.6609589 120.97947,46.9219178 121.578232,46.9219178 C122.035182,46.9219178 122.495558,46.769863 122.877149,46.4582192 C123.760221,45.7369863 123.893812,44.4335616 123.17516,43.5486301 L115.541967,34.1328767 Z" id="Shape" fill="#00678C" fill-rule="nonzero"></path>
                <path d="M96.5507845,13.0650685 C94.9737238,13.0650685 93.6912486,14.3582192 93.6912486,15.9479452 C93.6912486,17.5376712 94.9737238,18.8315068 96.5507845,18.8315068 C98.1285304,18.8315068 99.4103204,17.5376712 99.4103204,15.9479452 C99.4096354,14.3582192 98.1278453,13.0650685 96.5507845,13.0650685 Z" id="Path" fill="#85BC49"></path>
            </g>
        </g>
    </g>
</svg>