<svg width="124" height="35" xmlns="http://www.w3.org/2000/svg"><g fill="none" fill-rule="evenodd"><path d="M96.645 8.349a2.064 2.064 0 0 0-2.061 2.067v21.437c0 1.143.923 2.07 2.061 2.07a2.066 2.066 0 0 0 2.062-2.07V10.416a2.065 2.065 0 0 0-2.062-2.067zm-85.52-.034a2.07 2.07 0 0 0-.48-.125h-.155c-.123 0-.247 0-.364.016C7.683 8.3 5.548 9.44 4.18 11.34v-1.265a1.927 1.927 0 0 0-.79-1.357 1.9 1.9 0 0 0-2.257 0c-.48.342-.789.916-.789 1.552V31.91c0 .62.287 1.172.72 1.544.356.287.804.466 1.29.466.488 0 .937-.18 1.285-.466.388-.326.657-.8.712-1.334V18.879c0-4.195 2.985-6.329 6.064-6.64h.016l.333-.03h.014a1.78 1.78 0 0 0 .348-.1 2.032 2.032 0 0 0 1.315-1.901c-.001-.869-.55-1.607-1.316-1.893zm26.292 11.992c-.34-3.499-1.693-6.617-3.836-8.781-2.22-2.242-5.158-3.374-8.733-3.374-8.035 0-12.831 6.586-12.831 12.961 0 7.362 5.514 12.915 12.831 12.915 4.625 0 8.532-2.241 10.86-6.105.077-.108.146-.224.201-.349a1.99 1.99 0 0 0 0-1.504c-.1-.234-.24-.443-.418-.621a1.818 1.818 0 0 0-.61-.411 1.882 1.882 0 0 0-1.5 0 1.919 1.919 0 0 0-.62.41c-.077.086-.146.17-.215.265l-.04.062c-1.554 2.863-4.369 4.539-7.657 4.539-4.516 0-8.09-3.206-8.654-7.672h19.329c.27 0 .526-.055.757-.157.233-.093.434-.232.612-.411a1.943 1.943 0 0 0 .564-1.327l-.038-.434v-.006h-.002zm-21.185-1.382c.928-4.18 4.408-7.065 8.617-7.065 4.03 0 7.318 2.824 8.308 7.065H16.232zm99.31 2.208l7.636-9.415a2.07 2.07 0 0 0-.298-2.908 2.055 2.055 0 0 0-2.9.297l-7.095 8.75-7.095-8.75a2.055 2.055 0 0 0-2.9-.297 2.073 2.073 0 0 0-.299 2.908l7.636 9.415-7.635 9.416a2.073 2.073 0 0 0 .297 2.91 2.058 2.058 0 0 0 2.9-.3l7.095-8.748 7.094 8.748a2.058 2.058 0 0 0 2.9.3 2.073 2.073 0 0 0 .297-2.91l-7.633-9.416z" fill="#00678C" fill-rule="nonzero"/><path d="M96.55.065c-1.576 0-2.859 1.293-2.859 2.883s1.283 2.884 2.86 2.884c1.578 0 2.86-1.294 2.86-2.884-.001-1.59-1.283-2.883-2.86-2.883z" fill="#85BC49"/></g></svg>
