<?xml version="1.0" encoding="UTF-8" standalone="no"?>
<svg width="320px" height="80px" viewBox="0 0 320 80" version="1.1" xmlns="http://www.w3.org/2000/svg" xmlns:xlink="http://www.w3.org/1999/xlink">
    <!-- Generator: Sketch 3.8.3 (29802) - http://www.bohemiancoding.com/sketch -->
    <title>work_prodeye_logo80</title>
    <desc>Created with Sketch.</desc>
    <defs>
        <rect id="path-1" x="0" y="0" width="560" height="360"></rect>
        <mask id="mask-2" maskContentUnits="userSpaceOnUse" maskUnits="objectBoundingBox" x="0" y="0" width="560" height="360" fill="white">
            <use xlink:href="#path-1"></use>
        </mask>
        <mask id="mask-4" maskContentUnits="userSpaceOnUse" maskUnits="objectBoundingBox" x="0" y="0" width="560" height="360" fill="white">
            <use xlink:href="#path-1"></use>
        </mask>
    </defs>
    <g id="Content-real" stroke="none" stroke-width="1" fill="none" fill-rule="evenodd">
        <g id="Desktop-HD-Copy-23" transform="translate(-159.000000, -3240.000000)">
            <g id="Group-Copy-13" transform="translate(120.000000, 3201.000000)">
                <g id="Rectangle-124">
                    <mask id="mask-3" fill="white">
                        <use xlink:href="#path-1"></use>
                    </mask>
                    <g id="Mask" stroke="#2CBA00" mask="url(#mask-2)" stroke-width="2">
                        <use mask="url(#mask-4)" xlink:href="#path-1"></use>
                    </g>
                </g>
            </g>
            <g id="Page-1" transform="translate(160.000000, 3260.000000)">
                <path d="M22.1297297,12.227027 C30.8324324,12.227027 35.3945946,18.4540541 35.3945946,19.4486486 C35.3945946,20.4324324 30.8324324,26.6702703 22.1297297,26.6702703 C13.4162162,26.6702703 8.85405405,20.4324324 8.85405405,19.4486486 C8.85405405,18.4540541 13.4162162,12.227027 22.1297297,12.227027 L22.1297297,12.227027 Z M5.05945946,0 C2.27027027,0 0,2.23783784 0,4.99459459 L0,35.0054054 C0,37.7621622 2.27027027,40 5.05945946,40 L37.1027027,40 C39.8918919,40 42.1621622,37.7621622 42.1621622,35.0054054 L42.1621622,26.9945946 L46.8756757,20 L42.1621622,14 L42.1621622,4.99459459 C42.1621622,2.23783784 39.8918919,0 37.1027027,0 L5.05945946,0 Z M16.9513514,19.5567568 C16.9513514,22.1945946 19.1567568,24.3243243 21.8702703,24.3243243 C24.5837838,24.3243243 26.7783784,22.1945946 26.7783784,19.5567568 C26.7783784,16.9189189 24.5837838,14.7891892 21.8702703,14.7891892 C19.1567568,14.7891892 16.9513514,16.9189189 16.9513514,19.5567568 L16.9513514,19.5567568 Z" id="Fill-1" fill="#2CBA00"></path>
                <path d="M16.9513514,19.5567568 C16.9513514,16.9189189 19.1567568,14.7891892 21.8702703,14.7891892 C24.5837838,14.7891892 26.7783784,16.9189189 26.7783784,19.5567568 C26.7783784,22.1945946 24.5837838,24.3243243 21.8702703,24.3243243 C19.1567568,24.3243243 16.9513514,22.1945946 16.9513514,19.5567568 M22.1297297,12.227027 C13.4162162,12.227027 8.85405405,18.4540541 8.85405405,19.4486486 C8.85405405,20.4324324 13.4162162,26.6702703 22.1297297,26.6702703 C30.8324324,26.6702703 35.3945946,20.4324324 35.3945946,19.4486486 C35.3945946,18.4540541 30.8324324,12.227027 22.1297297,12.227027" id="Fill-3" fill="#FFFFFF"></path>
            </g>
        </g>
    </g>
</svg>